<svg width="740" height="297" viewBox="0 0 740 297" fill="none" xmlns="http://www.w3.org/2000/svg">
<g clip-path="url(#clip0)">
<path d="M332.36 144L328.52 131.064H328.424C328.44 131.384 328.464 131.848 328.496 132.456C328.544 133.048 328.584 133.688 328.616 134.376C328.648 135.064 328.664 135.696 328.664 136.272V144H325.016V126.864H330.536L334.352 139.536H334.448L338.384 126.864H343.88V144H340.088V136.176C340.088 135.632 340.096 135.032 340.112 134.376C340.144 133.704 340.168 133.072 340.184 132.48C340.216 131.872 340.24 131.408 340.256 131.088H340.16L336.2 144H332.36ZM353.53 130.56C355.242 130.56 356.57 130.96 357.514 131.76C358.458 132.56 358.93 133.728 358.93 135.264V144H356.122L355.33 142.224H355.234C354.674 142.944 354.082 143.464 353.458 143.784C352.834 144.088 351.978 144.24 350.89 144.24C349.722 144.24 348.754 143.896 347.986 143.208C347.218 142.52 346.834 141.456 346.834 140.016C346.834 138.624 347.322 137.592 348.298 136.92C349.29 136.232 350.738 135.848 352.642 135.768L354.898 135.696V135.312C354.898 134.672 354.73 134.208 354.394 133.92C354.074 133.632 353.626 133.488 353.05 133.488C352.474 133.488 351.874 133.584 351.25 133.776C350.626 133.952 349.994 134.176 349.354 134.448L348.13 131.76C348.85 131.376 349.666 131.08 350.578 130.872C351.49 130.664 352.474 130.56 353.53 130.56ZM353.674 138.048C352.666 138.08 351.962 138.264 351.562 138.6C351.162 138.92 350.962 139.36 350.962 139.92C350.962 140.416 351.106 140.776 351.394 141C351.682 141.224 352.05 141.336 352.498 141.336C353.17 141.336 353.738 141.136 354.202 140.736C354.666 140.32 354.898 139.76 354.898 139.056V138L353.674 138.048ZM366.401 133.464C366.401 133.976 366.377 134.52 366.329 135.096C366.297 135.656 366.249 136.2 366.185 136.728H366.257C366.465 136.408 366.697 136.064 366.953 135.696C367.225 135.328 367.489 134.992 367.745 134.688L371.105 130.824H375.617L370.697 136.488L375.929 144H371.297L367.913 138.96L366.401 140.136V144H362.345V125.76H366.401V133.464ZM383.338 130.584C385.194 130.584 386.666 131.096 387.754 132.12C388.842 133.128 389.386 134.616 389.386 136.584V138.456H381.058C381.09 139.32 381.37 140.008 381.898 140.52C382.426 141.032 383.178 141.288 384.154 141.288C384.986 141.288 385.746 141.208 386.434 141.048C387.138 140.888 387.858 140.632 388.594 140.28V143.28C387.938 143.616 387.242 143.856 386.506 144C385.786 144.16 384.89 144.24 383.818 144.24C382.49 144.24 381.306 144 380.266 143.52C379.242 143.04 378.434 142.304 377.842 141.312C377.266 140.304 376.978 139.032 376.978 137.496C376.978 135.944 377.242 134.656 377.77 133.632C378.298 132.608 379.034 131.848 379.978 131.352C380.938 130.84 382.058 130.584 383.338 130.584ZM383.41 133.392C382.786 133.392 382.266 133.592 381.85 133.992C381.45 134.376 381.21 134.992 381.13 135.84H385.666C385.65 135.152 385.458 134.576 385.09 134.112C384.722 133.632 384.162 133.392 383.41 133.392ZM414.113 130.584C415.617 130.584 416.753 130.968 417.521 131.736C418.305 132.488 418.697 133.712 418.697 135.408V144H414.665V136.536C414.665 135.576 414.513 134.88 414.209 134.448C413.921 134 413.473 133.776 412.865 133.776C412.017 133.776 411.417 134.112 411.065 134.784C410.713 135.44 410.537 136.376 410.537 137.592V144H406.505V136.536C406.505 134.696 405.913 133.776 404.729 133.776C403.833 133.776 403.217 134.144 402.881 134.88C402.561 135.6 402.401 136.64 402.401 138V144H398.345V130.824H401.417L401.993 132.48H402.161C402.529 131.872 403.049 131.408 403.721 131.088C404.409 130.752 405.185 130.584 406.049 130.584C407.937 130.584 409.257 131.208 410.009 132.456H410.249C410.665 131.832 411.217 131.368 411.905 131.064C412.593 130.744 413.329 130.584 414.113 130.584ZM424.175 125.592C424.751 125.592 425.255 125.72 425.687 125.976C426.119 126.232 426.335 126.728 426.335 127.464C426.335 128.184 426.119 128.68 425.687 128.952C425.255 129.208 424.751 129.336 424.175 129.336C423.567 129.336 423.047 129.208 422.615 128.952C422.199 128.68 421.991 128.184 421.991 127.464C421.991 126.728 422.199 126.232 422.615 125.976C423.047 125.72 423.567 125.592 424.175 125.592ZM426.167 130.824V144H422.135V130.824H426.167ZM435.322 144.24C433.338 144.24 431.786 143.704 430.666 142.632C429.546 141.544 428.986 139.824 428.986 137.472C428.986 135.872 429.266 134.568 429.826 133.56C430.402 132.536 431.194 131.784 432.202 131.304C433.21 130.824 434.362 130.584 435.658 130.584C436.522 130.584 437.298 130.672 437.986 130.848C438.69 131.024 439.314 131.248 439.858 131.52L438.682 134.568C438.122 134.328 437.602 134.144 437.122 134.016C436.642 133.872 436.154 133.8 435.658 133.8C434.842 133.8 434.21 134.104 433.762 134.712C433.314 135.32 433.09 136.232 433.09 137.448C433.09 138.68 433.322 139.584 433.786 140.16C434.25 140.72 434.882 141 435.682 141C436.386 141 437.042 140.904 437.65 140.712C438.274 140.504 438.866 140.216 439.426 139.848V143.16C438.882 143.512 438.29 143.784 437.65 143.976C437.01 144.152 436.234 144.24 435.322 144.24ZM449.947 130.584C450.155 130.584 450.387 130.6 450.643 130.632C450.899 130.648 451.099 130.672 451.243 130.704L450.907 134.496C450.763 134.464 450.579 134.44 450.355 134.424C450.131 134.392 449.883 134.376 449.611 134.376C449.099 134.376 448.587 134.456 448.075 134.616C447.579 134.776 447.163 135.08 446.827 135.528C446.507 135.96 446.347 136.584 446.347 137.4V144H442.291V130.824H445.339L445.963 132.984H446.131C446.515 132.328 447.043 131.768 447.715 131.304C448.387 130.824 449.131 130.584 449.947 130.584ZM465.148 137.376C465.148 139.584 464.564 141.28 463.396 142.464C462.244 143.648 460.66 144.24 458.644 144.24C457.396 144.24 456.284 143.976 455.308 143.448C454.348 142.904 453.588 142.128 453.028 141.12C452.484 140.096 452.212 138.848 452.212 137.376C452.212 135.2 452.788 133.528 453.94 132.36C455.108 131.176 456.7 130.584 458.716 130.584C459.964 130.584 461.068 130.848 462.028 131.376C463.004 131.904 463.764 132.672 464.308 133.68C464.868 134.688 465.148 135.92 465.148 137.376ZM456.316 137.376C456.316 138.608 456.5 139.544 456.868 140.184C457.236 140.808 457.844 141.12 458.692 141.12C459.524 141.12 460.124 140.808 460.492 140.184C460.86 139.544 461.044 138.608 461.044 137.376C461.044 136.16 460.86 135.248 460.492 134.64C460.124 134.016 459.516 133.704 458.668 133.704C457.836 133.704 457.236 134.016 456.868 134.64C456.5 135.248 456.316 136.16 456.316 137.376ZM473.907 141.024C474.307 141.024 474.683 140.984 475.035 140.904C475.403 140.824 475.771 140.72 476.139 140.592V143.568C475.707 143.76 475.211 143.92 474.651 144.048C474.091 144.176 473.427 144.24 472.659 144.24C471.843 144.24 471.115 144.112 470.475 143.856C469.851 143.584 469.355 143.128 468.987 142.488C468.635 141.848 468.459 140.944 468.459 139.776V133.848H466.779V132.168L468.795 130.872L469.899 128.088H472.491V130.824H475.995V133.848H472.491V139.632C472.491 140.096 472.619 140.448 472.875 140.688C473.131 140.912 473.475 141.024 473.907 141.024ZM486.298 130.584C486.506 130.584 486.738 130.6 486.994 130.632C487.25 130.648 487.45 130.672 487.594 130.704L487.258 134.496C487.114 134.464 486.93 134.44 486.706 134.424C486.482 134.392 486.234 134.376 485.962 134.376C485.45 134.376 484.938 134.456 484.426 134.616C483.93 134.776 483.514 135.08 483.178 135.528C482.858 135.96 482.698 136.584 482.698 137.4V144H478.642V130.824H481.69L482.314 132.984H482.482C482.866 132.328 483.394 131.768 484.066 131.304C484.738 130.824 485.482 130.584 486.298 130.584ZM495.14 130.56C496.852 130.56 498.18 130.96 499.124 131.76C500.068 132.56 500.54 133.728 500.54 135.264V144H497.732L496.94 142.224H496.844C496.284 142.944 495.692 143.464 495.068 143.784C494.444 144.088 493.588 144.24 492.5 144.24C491.332 144.24 490.364 143.896 489.596 143.208C488.828 142.52 488.444 141.456 488.444 140.016C488.444 138.624 488.932 137.592 489.908 136.92C490.9 136.232 492.348 135.848 494.252 135.768L496.508 135.696V135.312C496.508 134.672 496.34 134.208 496.004 133.92C495.684 133.632 495.236 133.488 494.66 133.488C494.084 133.488 493.484 133.584 492.86 133.776C492.236 133.952 491.604 134.176 490.964 134.448L489.74 131.76C490.46 131.376 491.276 131.08 492.188 130.872C493.1 130.664 494.084 130.56 495.14 130.56ZM495.284 138.048C494.276 138.08 493.572 138.264 493.172 138.6C492.772 138.92 492.572 139.36 492.572 139.92C492.572 140.416 492.716 140.776 493.004 141C493.292 141.224 493.66 141.336 494.108 141.336C494.78 141.336 495.348 141.136 495.812 140.736C496.276 140.32 496.508 139.76 496.508 139.056V138L495.284 138.048ZM511.803 130.584C513.195 130.584 514.315 130.968 515.163 131.736C516.027 132.488 516.459 133.712 516.459 135.408V144H512.427V136.536C512.427 135.624 512.275 134.936 511.971 134.472C511.667 134.008 511.187 133.776 510.531 133.776C509.555 133.776 508.891 134.144 508.539 134.88C508.187 135.6 508.011 136.64 508.011 138V144H503.955V130.824H507.027L507.579 132.528H507.771C508.187 131.888 508.747 131.408 509.451 131.088C510.155 130.752 510.939 130.584 511.803 130.584ZM529.349 140.016C529.349 141.312 528.893 142.344 527.981 143.112C527.085 143.864 525.677 144.24 523.757 144.24C522.829 144.24 522.013 144.184 521.309 144.072C520.621 143.96 519.925 143.76 519.221 143.472V140.208C519.989 140.56 520.789 140.832 521.621 141.024C522.453 141.2 523.157 141.288 523.733 141.288C524.341 141.288 524.781 141.208 525.053 141.048C525.325 140.888 525.461 140.664 525.461 140.376C525.461 140.168 525.389 139.984 525.245 139.824C525.117 139.664 524.845 139.488 524.429 139.296C524.029 139.088 523.429 138.816 522.629 138.48C521.845 138.144 521.197 137.8 520.685 137.448C520.189 137.096 519.813 136.68 519.557 136.2C519.317 135.704 519.197 135.088 519.197 134.352C519.197 133.104 519.677 132.168 520.637 131.544C521.613 130.904 522.901 130.584 524.501 130.584C525.349 130.584 526.149 130.672 526.901 130.848C527.653 131.024 528.429 131.296 529.229 131.664L528.077 134.4C527.421 134.112 526.781 133.88 526.157 133.704C525.549 133.528 524.997 133.44 524.501 133.44C523.573 133.44 523.109 133.68 523.109 134.16C523.109 134.336 523.173 134.504 523.301 134.664C523.445 134.808 523.709 134.968 524.093 135.144C524.493 135.32 525.069 135.568 525.821 135.888C526.573 136.192 527.213 136.52 527.741 136.872C528.269 137.208 528.669 137.624 528.941 138.12C529.213 138.616 529.349 139.248 529.349 140.016ZM537.913 130.56C539.625 130.56 540.953 130.96 541.897 131.76C542.841 132.56 543.313 133.728 543.313 135.264V144H540.505L539.713 142.224H539.617C539.057 142.944 538.465 143.464 537.841 143.784C537.217 144.088 536.361 144.24 535.273 144.24C534.105 144.24 533.137 143.896 532.369 143.208C531.601 142.52 531.217 141.456 531.217 140.016C531.217 138.624 531.705 137.592 532.681 136.92C533.673 136.232 535.121 135.848 537.025 135.768L539.281 135.696V135.312C539.281 134.672 539.113 134.208 538.777 133.92C538.457 133.632 538.009 133.488 537.433 133.488C536.857 133.488 536.257 133.584 535.633 133.776C535.009 133.952 534.377 134.176 533.737 134.448L532.513 131.76C533.233 131.376 534.049 131.08 534.961 130.872C535.873 130.664 536.857 130.56 537.913 130.56ZM538.057 138.048C537.049 138.08 536.345 138.264 535.945 138.6C535.545 138.92 535.345 139.36 535.345 139.92C535.345 140.416 535.489 140.776 535.777 141C536.065 141.224 536.433 141.336 536.881 141.336C537.553 141.336 538.121 141.136 538.585 140.736C539.049 140.32 539.281 139.76 539.281 139.056V138L538.057 138.048ZM552.392 144.24C550.408 144.24 548.856 143.704 547.736 142.632C546.616 141.544 546.056 139.824 546.056 137.472C546.056 135.872 546.336 134.568 546.896 133.56C547.472 132.536 548.264 131.784 549.272 131.304C550.28 130.824 551.432 130.584 552.728 130.584C553.592 130.584 554.368 130.672 555.056 130.848C555.76 131.024 556.384 131.248 556.928 131.52L555.752 134.568C555.192 134.328 554.672 134.144 554.192 134.016C553.712 133.872 553.224 133.8 552.728 133.8C551.912 133.8 551.28 134.104 550.832 134.712C550.384 135.32 550.16 136.232 550.16 137.448C550.16 138.68 550.392 139.584 550.856 140.16C551.32 140.72 551.952 141 552.752 141C553.456 141 554.112 140.904 554.72 140.712C555.344 140.504 555.936 140.216 556.496 139.848V143.16C555.952 143.512 555.36 143.784 554.72 143.976C554.08 144.152 553.304 144.24 552.392 144.24ZM565.337 141.024C565.737 141.024 566.113 140.984 566.465 140.904C566.833 140.824 567.201 140.72 567.569 140.592V143.568C567.137 143.76 566.641 143.92 566.081 144.048C565.521 144.176 564.857 144.24 564.089 144.24C563.273 144.24 562.545 144.112 561.905 143.856C561.281 143.584 560.785 143.128 560.417 142.488C560.065 141.848 559.889 140.944 559.889 139.776V133.848H558.209V132.168L560.225 130.872L561.329 128.088H563.921V130.824H567.425V133.848H563.921V139.632C563.921 140.096 564.049 140.448 564.305 140.688C564.561 140.912 564.905 141.024 565.337 141.024ZM572.136 125.592C572.712 125.592 573.216 125.72 573.648 125.976C574.08 126.232 574.296 126.728 574.296 127.464C574.296 128.184 574.08 128.68 573.648 128.952C573.216 129.208 572.712 129.336 572.136 129.336C571.528 129.336 571.008 129.208 570.576 128.952C570.16 128.68 569.952 128.184 569.952 127.464C569.952 126.728 570.16 126.232 570.576 125.976C571.008 125.72 571.528 125.592 572.136 125.592ZM574.128 130.824V144H570.096V130.824H574.128ZM589.883 137.376C589.883 139.584 589.299 141.28 588.131 142.464C586.979 143.648 585.395 144.24 583.379 144.24C582.131 144.24 581.019 143.976 580.043 143.448C579.083 142.904 578.323 142.128 577.763 141.12C577.219 140.096 576.947 138.848 576.947 137.376C576.947 135.2 577.523 133.528 578.675 132.36C579.843 131.176 581.435 130.584 583.451 130.584C584.699 130.584 585.803 130.848 586.763 131.376C587.739 131.904 588.499 132.672 589.043 133.68C589.603 134.688 589.883 135.92 589.883 137.376ZM581.051 137.376C581.051 138.608 581.235 139.544 581.603 140.184C581.971 140.808 582.579 141.12 583.427 141.12C584.259 141.12 584.859 140.808 585.227 140.184C585.595 139.544 585.779 138.608 585.779 137.376C585.779 136.16 585.595 135.248 585.227 134.64C584.859 134.016 584.251 133.704 583.403 133.704C582.571 133.704 581.971 134.016 581.603 134.64C581.235 135.248 581.051 136.16 581.051 137.376ZM600.514 130.584C601.906 130.584 603.026 130.968 603.874 131.736C604.738 132.488 605.17 133.712 605.17 135.408V144H601.138V136.536C601.138 135.624 600.986 134.936 600.682 134.472C600.378 134.008 599.898 133.776 599.242 133.776C598.266 133.776 597.602 134.144 597.25 134.88C596.898 135.6 596.722 136.64 596.722 138V144H592.666V130.824H595.738L596.29 132.528H596.482C596.898 131.888 597.458 131.408 598.162 131.088C598.866 130.752 599.65 130.584 600.514 130.584ZM618.06 140.016C618.06 141.312 617.604 142.344 616.692 143.112C615.796 143.864 614.388 144.24 612.468 144.24C611.54 144.24 610.724 144.184 610.02 144.072C609.332 143.96 608.636 143.76 607.932 143.472V140.208C608.7 140.56 609.5 140.832 610.332 141.024C611.164 141.2 611.868 141.288 612.444 141.288C613.052 141.288 613.492 141.208 613.764 141.048C614.036 140.888 614.172 140.664 614.172 140.376C614.172 140.168 614.1 139.984 613.956 139.824C613.828 139.664 613.556 139.488 613.14 139.296C612.74 139.088 612.14 138.816 611.34 138.48C610.556 138.144 609.908 137.8 609.396 137.448C608.9 137.096 608.524 136.68 608.268 136.2C608.028 135.704 607.908 135.088 607.908 134.352C607.908 133.104 608.388 132.168 609.348 131.544C610.324 130.904 611.612 130.584 613.212 130.584C614.06 130.584 614.86 130.672 615.612 130.848C616.364 131.024 617.14 131.296 617.94 131.664L616.788 134.4C616.132 134.112 615.492 133.88 614.868 133.704C614.26 133.528 613.708 133.44 613.212 133.44C612.284 133.44 611.82 133.68 611.82 134.16C611.82 134.336 611.884 134.504 612.012 134.664C612.156 134.808 612.42 134.968 612.804 135.144C613.204 135.32 613.78 135.568 614.532 135.888C615.284 136.192 615.924 136.52 616.452 136.872C616.98 137.208 617.38 137.624 617.652 138.12C617.924 138.616 618.06 139.248 618.06 140.016ZM632.859 130.56C634.571 130.56 635.899 130.96 636.843 131.76C637.787 132.56 638.259 133.728 638.259 135.264V144H635.451L634.659 142.224H634.563C634.003 142.944 633.411 143.464 632.787 143.784C632.163 144.088 631.307 144.24 630.219 144.24C629.051 144.24 628.083 143.896 627.315 143.208C626.547 142.52 626.163 141.456 626.163 140.016C626.163 138.624 626.651 137.592 627.627 136.92C628.619 136.232 630.067 135.848 631.971 135.768L634.227 135.696V135.312C634.227 134.672 634.059 134.208 633.723 133.92C633.403 133.632 632.955 133.488 632.379 133.488C631.803 133.488 631.203 133.584 630.579 133.776C629.955 133.952 629.323 134.176 628.683 134.448L627.459 131.76C628.179 131.376 628.995 131.08 629.907 130.872C630.819 130.664 631.803 130.56 632.859 130.56ZM633.003 138.048C631.995 138.08 631.291 138.264 630.891 138.6C630.491 138.92 630.291 139.36 630.291 139.92C630.291 140.416 630.435 140.776 630.723 141C631.011 141.224 631.379 141.336 631.827 141.336C632.499 141.336 633.067 141.136 633.531 140.736C633.995 140.32 634.227 139.76 634.227 139.056V138L633.003 138.048ZM647.649 141.024C648.049 141.024 648.425 140.984 648.777 140.904C649.145 140.824 649.513 140.72 649.881 140.592V143.568C649.449 143.76 648.953 143.92 648.393 144.048C647.833 144.176 647.169 144.24 646.401 144.24C645.585 144.24 644.857 144.112 644.217 143.856C643.593 143.584 643.097 143.128 642.729 142.488C642.377 141.848 642.201 140.944 642.201 139.776V133.848H640.521V132.168L642.537 130.872L643.641 128.088H646.233V130.824H649.737V133.848H646.233V139.632C646.233 140.096 646.361 140.448 646.617 140.688C646.873 140.912 647.217 141.024 647.649 141.024ZM662.675 144H658.619V125.76H662.675V144ZM678.406 137.376C678.406 139.584 677.822 141.28 676.654 142.464C675.502 143.648 673.918 144.24 671.902 144.24C670.654 144.24 669.542 143.976 668.566 143.448C667.606 142.904 666.846 142.128 666.286 141.12C665.742 140.096 665.47 138.848 665.47 137.376C665.47 135.2 666.046 133.528 667.198 132.36C668.366 131.176 669.958 130.584 671.974 130.584C673.222 130.584 674.326 130.848 675.286 131.376C676.262 131.904 677.022 132.672 677.566 133.68C678.126 134.688 678.406 135.92 678.406 137.376ZM669.574 137.376C669.574 138.608 669.758 139.544 670.126 140.184C670.494 140.808 671.102 141.12 671.95 141.12C672.782 141.12 673.382 140.808 673.75 140.184C674.118 139.544 674.302 138.608 674.302 137.376C674.302 136.16 674.118 135.248 673.75 134.64C673.382 134.016 672.774 133.704 671.926 133.704C671.094 133.704 670.494 134.016 670.126 134.64C669.758 135.248 669.574 136.16 669.574 137.376ZM690.632 138.84C690.552 138.568 690.464 138.2 690.368 137.736C690.272 137.272 690.168 136.784 690.056 136.272C689.944 135.76 689.848 135.296 689.768 134.88C689.688 134.448 689.624 134.128 689.576 133.92H689.48C689.448 134.128 689.384 134.448 689.288 134.88C689.208 135.296 689.112 135.768 689 136.296C688.888 136.808 688.776 137.304 688.664 137.784C688.568 138.248 688.488 138.64 688.424 138.96L687.224 144H682.928L679.256 130.824H683.24L684.56 136.296C684.656 136.68 684.744 137.144 684.824 137.688C684.92 138.232 685 138.768 685.064 139.296C685.144 139.824 685.2 140.264 685.232 140.616H685.304C685.32 140.344 685.352 140.016 685.4 139.632C685.464 139.232 685.528 138.832 685.592 138.432C685.672 138.016 685.744 137.648 685.808 137.328C685.872 137.008 685.912 136.792 685.928 136.68L687.368 130.824H691.832L693.176 136.704C693.224 136.96 693.296 137.336 693.392 137.832C693.488 138.312 693.568 138.808 693.632 139.32C693.712 139.832 693.768 140.264 693.8 140.616H693.872C693.904 140.28 693.952 139.848 694.016 139.32C694.096 138.776 694.184 138.232 694.28 137.688C694.376 137.144 694.472 136.68 694.568 136.296L695.936 130.824H699.872L696.152 144H691.808L690.632 138.84ZM328.976 163.584C329.84 163.584 330.576 163.752 331.184 164.088C331.792 164.424 332.296 164.888 332.696 165.48H332.792L333.104 163.824H336.56V177.024C336.56 178.896 335.992 180.32 334.856 181.296C333.736 182.272 332.04 182.76 329.768 182.76C328.776 182.76 327.88 182.704 327.08 182.592C326.28 182.48 325.496 182.28 324.728 181.992V178.704C325.544 179.04 326.344 179.288 327.128 179.448C327.912 179.624 328.792 179.712 329.768 179.712C331.608 179.712 332.528 178.872 332.528 177.192V176.928C332.528 176.704 332.536 176.448 332.552 176.16C332.584 175.856 332.616 175.568 332.648 175.296H332.528C332.144 175.92 331.648 176.4 331.04 176.736C330.448 177.072 329.736 177.24 328.904 177.24C327.416 177.24 326.232 176.648 325.352 175.464C324.488 174.28 324.056 172.6 324.056 170.424C324.056 168.232 324.496 166.544 325.376 165.36C326.272 164.176 327.472 163.584 328.976 163.584ZM330.392 166.776C328.904 166.776 328.16 168.016 328.16 170.496C328.16 171.728 328.344 172.64 328.712 173.232C329.096 173.808 329.672 174.096 330.44 174.096C331.288 174.096 331.896 173.848 332.264 173.352C332.632 172.856 332.816 172.04 332.816 170.904V170.4C332.816 169.168 332.632 168.256 332.264 167.664C331.912 167.072 331.288 166.776 330.392 166.776ZM345.937 163.56C347.649 163.56 348.977 163.96 349.921 164.76C350.865 165.56 351.337 166.728 351.337 168.264V177H348.529L347.737 175.224H347.641C347.081 175.944 346.489 176.464 345.865 176.784C345.241 177.088 344.385 177.24 343.297 177.24C342.129 177.24 341.161 176.896 340.393 176.208C339.625 175.52 339.241 174.456 339.241 173.016C339.241 171.624 339.729 170.592 340.705 169.92C341.697 169.232 343.145 168.848 345.049 168.768L347.305 168.696V168.312C347.305 167.672 347.137 167.208 346.801 166.92C346.481 166.632 346.033 166.488 345.457 166.488C344.881 166.488 344.281 166.584 343.657 166.776C343.033 166.952 342.401 167.176 341.761 167.448L340.537 164.76C341.257 164.376 342.073 164.08 342.985 163.872C343.897 163.664 344.881 163.56 345.937 163.56ZM346.081 171.048C345.073 171.08 344.369 171.264 343.969 171.6C343.569 171.92 343.369 172.36 343.369 172.92C343.369 173.416 343.513 173.776 343.801 174C344.089 174.224 344.457 174.336 344.905 174.336C345.577 174.336 346.145 174.136 346.609 173.736C347.073 173.32 347.305 172.76 347.305 172.056V171L346.081 171.048ZM364.231 173.016C364.231 174.312 363.775 175.344 362.863 176.112C361.967 176.864 360.559 177.24 358.639 177.24C357.711 177.24 356.895 177.184 356.191 177.072C355.503 176.96 354.807 176.76 354.103 176.472V173.208C354.871 173.56 355.671 173.832 356.503 174.024C357.335 174.2 358.039 174.288 358.615 174.288C359.223 174.288 359.663 174.208 359.935 174.048C360.207 173.888 360.343 173.664 360.343 173.376C360.343 173.168 360.271 172.984 360.127 172.824C359.999 172.664 359.727 172.488 359.311 172.296C358.911 172.088 358.311 171.816 357.511 171.48C356.727 171.144 356.079 170.8 355.567 170.448C355.071 170.096 354.695 169.68 354.439 169.2C354.199 168.704 354.079 168.088 354.079 167.352C354.079 166.104 354.559 165.168 355.519 164.544C356.495 163.904 357.783 163.584 359.383 163.584C360.231 163.584 361.031 163.672 361.783 163.848C362.535 164.024 363.311 164.296 364.111 164.664L362.959 167.4C362.303 167.112 361.663 166.88 361.039 166.704C360.431 166.528 359.879 166.44 359.383 166.44C358.455 166.44 357.991 166.68 357.991 167.16C357.991 167.336 358.055 167.504 358.183 167.664C358.327 167.808 358.591 167.968 358.975 168.144C359.375 168.32 359.951 168.568 360.703 168.888C361.455 169.192 362.095 169.52 362.623 169.872C363.151 170.208 363.551 170.624 363.823 171.12C364.095 171.616 364.231 172.248 364.231 173.016ZM378.79 177.24C376.806 177.24 375.254 176.704 374.134 175.632C373.014 174.544 372.454 172.824 372.454 170.472C372.454 168.872 372.734 167.568 373.294 166.56C373.87 165.536 374.662 164.784 375.67 164.304C376.678 163.824 377.83 163.584 379.126 163.584C379.99 163.584 380.766 163.672 381.454 163.848C382.158 164.024 382.782 164.248 383.326 164.52L382.15 167.568C381.59 167.328 381.07 167.144 380.59 167.016C380.11 166.872 379.622 166.8 379.126 166.8C378.31 166.8 377.678 167.104 377.23 167.712C376.782 168.32 376.558 169.232 376.558 170.448C376.558 171.68 376.79 172.584 377.254 173.16C377.718 173.72 378.35 174 379.15 174C379.854 174 380.51 173.904 381.118 173.712C381.742 173.504 382.334 173.216 382.894 172.848V176.16C382.35 176.512 381.758 176.784 381.118 176.976C380.478 177.152 379.702 177.24 378.79 177.24ZM398.023 170.376C398.023 172.584 397.439 174.28 396.271 175.464C395.119 176.648 393.535 177.24 391.519 177.24C390.271 177.24 389.159 176.976 388.183 176.448C387.223 175.904 386.463 175.128 385.903 174.12C385.359 173.096 385.087 171.848 385.087 170.376C385.087 168.2 385.663 166.528 386.815 165.36C387.983 164.176 389.575 163.584 391.591 163.584C392.839 163.584 393.943 163.848 394.903 164.376C395.879 164.904 396.639 165.672 397.183 166.68C397.743 167.688 398.023 168.92 398.023 170.376ZM389.191 170.376C389.191 171.608 389.375 172.544 389.743 173.184C390.111 173.808 390.719 174.12 391.567 174.12C392.399 174.12 392.999 173.808 393.367 173.184C393.735 172.544 393.919 171.608 393.919 170.376C393.919 169.16 393.735 168.248 393.367 167.64C392.999 167.016 392.391 166.704 391.543 166.704C390.711 166.704 390.111 167.016 389.743 167.64C389.375 168.248 389.191 169.16 389.191 170.376ZM410.286 173.016C410.286 174.312 409.83 175.344 408.918 176.112C408.022 176.864 406.614 177.24 404.694 177.24C403.766 177.24 402.95 177.184 402.246 177.072C401.558 176.96 400.862 176.76 400.158 176.472V173.208C400.926 173.56 401.726 173.832 402.558 174.024C403.39 174.2 404.094 174.288 404.67 174.288C405.278 174.288 405.718 174.208 405.99 174.048C406.262 173.888 406.398 173.664 406.398 173.376C406.398 173.168 406.326 172.984 406.182 172.824C406.054 172.664 405.782 172.488 405.366 172.296C404.966 172.088 404.366 171.816 403.566 171.48C402.782 171.144 402.134 170.8 401.622 170.448C401.126 170.096 400.75 169.68 400.494 169.2C400.254 168.704 400.134 168.088 400.134 167.352C400.134 166.104 400.614 165.168 401.574 164.544C402.55 163.904 403.838 163.584 405.438 163.584C406.286 163.584 407.086 163.672 407.838 163.848C408.59 164.024 409.366 164.296 410.166 164.664L409.014 167.4C408.358 167.112 407.718 166.88 407.094 166.704C406.486 166.528 405.934 166.44 405.438 166.44C404.51 166.44 404.046 166.68 404.046 167.16C404.046 167.336 404.11 167.504 404.238 167.664C404.382 167.808 404.646 167.968 405.03 168.144C405.43 168.32 406.006 168.568 406.758 168.888C407.51 169.192 408.15 169.52 408.678 169.872C409.206 170.208 409.606 170.624 409.878 171.12C410.15 171.616 410.286 172.248 410.286 173.016ZM418.923 174.024C419.323 174.024 419.699 173.984 420.051 173.904C420.419 173.824 420.787 173.72 421.155 173.592V176.568C420.723 176.76 420.227 176.92 419.667 177.048C419.107 177.176 418.443 177.24 417.675 177.24C416.859 177.24 416.131 177.112 415.491 176.856C414.867 176.584 414.371 176.128 414.003 175.488C413.651 174.848 413.475 173.944 413.475 172.776V166.848H411.795V165.168L413.811 163.872L414.915 161.088H417.507V163.824H421.011V166.848H417.507V172.632C417.507 173.096 417.635 173.448 417.891 173.688C418.147 173.912 418.491 174.024 418.923 174.024ZM433.138 173.016C433.138 174.312 432.682 175.344 431.77 176.112C430.874 176.864 429.466 177.24 427.546 177.24C426.618 177.24 425.802 177.184 425.098 177.072C424.41 176.96 423.714 176.76 423.01 176.472V173.208C423.778 173.56 424.578 173.832 425.41 174.024C426.242 174.2 426.946 174.288 427.522 174.288C428.13 174.288 428.57 174.208 428.842 174.048C429.114 173.888 429.25 173.664 429.25 173.376C429.25 173.168 429.178 172.984 429.034 172.824C428.906 172.664 428.634 172.488 428.218 172.296C427.818 172.088 427.218 171.816 426.418 171.48C425.634 171.144 424.986 170.8 424.474 170.448C423.978 170.096 423.602 169.68 423.346 169.2C423.106 168.704 422.986 168.088 422.986 167.352C422.986 166.104 423.466 165.168 424.426 164.544C425.402 163.904 426.69 163.584 428.29 163.584C429.138 163.584 429.938 163.672 430.69 163.848C431.442 164.024 432.218 164.296 433.018 164.664L431.866 167.4C431.21 167.112 430.57 166.88 429.946 166.704C429.338 166.528 428.786 166.44 428.29 166.44C427.362 166.44 426.898 166.68 426.898 167.16C426.898 167.336 426.962 167.504 427.09 167.664C427.234 167.808 427.498 167.968 427.882 168.144C428.282 168.32 428.858 168.568 429.61 168.888C430.362 169.192 431.002 169.52 431.53 169.872C432.058 170.208 432.458 170.624 432.73 171.12C433.002 171.616 433.138 172.248 433.138 173.016ZM447.937 163.56C449.649 163.56 450.977 163.96 451.921 164.76C452.865 165.56 453.337 166.728 453.337 168.264V177H450.529L449.737 175.224H449.641C449.081 175.944 448.489 176.464 447.865 176.784C447.241 177.088 446.385 177.24 445.297 177.24C444.129 177.24 443.161 176.896 442.393 176.208C441.625 175.52 441.241 174.456 441.241 173.016C441.241 171.624 441.729 170.592 442.705 169.92C443.697 169.232 445.145 168.848 447.049 168.768L449.305 168.696V168.312C449.305 167.672 449.137 167.208 448.801 166.92C448.481 166.632 448.033 166.488 447.457 166.488C446.881 166.488 446.281 166.584 445.657 166.776C445.033 166.952 444.401 167.176 443.761 167.448L442.537 164.76C443.257 164.376 444.073 164.08 444.985 163.872C445.897 163.664 446.881 163.56 447.937 163.56ZM448.081 171.048C447.073 171.08 446.369 171.264 445.969 171.6C445.569 171.92 445.369 172.36 445.369 172.92C445.369 173.416 445.513 173.776 445.801 174C446.089 174.224 446.457 174.336 446.905 174.336C447.577 174.336 448.145 174.136 448.609 173.736C449.073 173.32 449.305 172.76 449.305 172.056V171L448.081 171.048ZM464.599 163.584C465.991 163.584 467.111 163.968 467.959 164.736C468.823 165.488 469.255 166.712 469.255 168.408V177H465.223V169.536C465.223 168.624 465.071 167.936 464.767 167.472C464.463 167.008 463.983 166.776 463.327 166.776C462.351 166.776 461.687 167.144 461.335 167.88C460.983 168.6 460.807 169.64 460.807 171V177H456.751V163.824H459.823L460.375 165.528H460.567C460.983 164.888 461.543 164.408 462.247 164.088C462.951 163.752 463.735 163.584 464.599 163.584ZM476.818 177.24C475.394 177.24 474.234 176.664 473.338 175.512C472.442 174.36 471.994 172.664 471.994 170.424C471.994 168.168 472.45 166.464 473.362 165.312C474.274 164.16 475.466 163.584 476.938 163.584C477.866 163.584 478.618 163.768 479.194 164.136C479.77 164.504 480.234 164.96 480.586 165.504H480.682C480.634 165.216 480.578 164.808 480.514 164.28C480.466 163.736 480.442 163.2 480.442 162.672V158.76H484.497V177H481.426L480.61 175.296H480.442C480.106 175.84 479.65 176.304 479.074 176.688C478.498 177.056 477.746 177.24 476.818 177.24ZM478.354 174.024C479.218 174.024 479.826 173.76 480.178 173.232C480.546 172.704 480.738 171.904 480.754 170.832V170.472C480.754 169.304 480.578 168.408 480.226 167.784C479.89 167.16 479.25 166.848 478.306 166.848C477.618 166.848 477.074 167.152 476.674 167.76C476.274 168.368 476.074 169.28 476.074 170.496C476.074 171.696 476.274 172.584 476.674 173.16C477.09 173.736 477.65 174.024 478.354 174.024ZM504.501 177H494.493V159.864H504.501V163.176H498.573V166.464H504.069V169.776H498.573V173.64H504.501V177ZM513.085 159.864C517.693 159.864 519.997 161.568 519.997 164.976C519.997 166.08 519.701 167.008 519.109 167.76C518.533 168.512 517.805 169.104 516.925 169.536L521.941 177H517.357L513.493 170.568H511.885V177H507.805V159.864H513.085ZM512.917 163.08H511.885V167.376H512.917C513.893 167.376 514.621 167.2 515.101 166.848C515.597 166.48 515.845 165.904 515.845 165.12C515.845 164.432 515.613 163.92 515.149 163.584C514.685 163.248 513.941 163.08 512.917 163.08ZM531.276 163.008C530.028 163.008 529.06 163.496 528.372 164.472C527.684 165.448 527.34 166.784 527.34 168.48C527.34 170.224 527.668 171.56 528.324 172.488C528.98 173.4 530.004 173.856 531.396 173.856C532.116 173.856 532.828 173.768 533.532 173.592C534.236 173.4 534.98 173.16 535.764 172.872V176.328C534.996 176.648 534.228 176.88 533.46 177.024C532.708 177.168 531.884 177.24 530.988 177.24C529.164 177.24 527.676 176.872 526.524 176.136C525.372 175.4 524.516 174.376 523.956 173.064C523.412 171.752 523.14 170.216 523.14 168.456C523.14 166.728 523.452 165.2 524.076 163.872C524.7 162.544 525.62 161.504 526.836 160.752C528.052 160 529.54 159.624 531.3 159.624C532.132 159.624 532.988 159.728 533.868 159.936C534.764 160.128 535.62 160.424 536.436 160.824L535.164 164.088C534.524 163.8 533.884 163.552 533.244 163.344C532.604 163.12 531.948 163.008 531.276 163.008ZM550.274 177H538.082V174.24L542.33 169.944C543.194 169.048 543.882 168.312 544.394 167.736C544.906 167.16 545.266 166.656 545.474 166.224C545.698 165.776 545.81 165.304 545.81 164.808C545.81 164.216 545.634 163.776 545.282 163.488C544.93 163.2 544.474 163.056 543.914 163.056C543.322 163.056 542.73 163.208 542.138 163.512C541.546 163.816 540.906 164.256 540.218 164.832L537.986 162.216C538.482 161.768 539.01 161.352 539.57 160.968C540.13 160.568 540.786 160.248 541.538 160.008C542.306 159.752 543.226 159.624 544.298 159.624C545.45 159.624 546.434 159.832 547.25 160.248C548.082 160.648 548.722 161.2 549.17 161.904C549.634 162.592 549.866 163.384 549.866 164.28C549.866 165.256 549.682 166.136 549.314 166.92C548.946 167.688 548.402 168.464 547.682 169.248C546.962 170.016 546.082 170.872 545.042 171.816L543.266 173.448V173.592H550.274V177ZM564.125 168.432C564.125 170.272 563.925 171.848 563.525 173.16C563.141 174.472 562.501 175.48 561.605 176.184C560.725 176.888 559.541 177.24 558.053 177.24C555.941 177.24 554.397 176.464 553.421 174.912C552.461 173.36 551.981 171.2 551.981 168.432C551.981 166.592 552.173 165.016 552.557 163.704C552.941 162.376 553.573 161.36 554.453 160.656C555.349 159.952 556.549 159.6 558.053 159.6C560.133 159.6 561.661 160.376 562.637 161.928C563.629 163.48 564.125 165.648 564.125 168.432ZM556.037 168.432C556.037 170.272 556.173 171.656 556.445 172.584C556.717 173.496 557.253 173.952 558.053 173.952C558.821 173.952 559.349 173.496 559.637 172.584C559.925 171.656 560.069 170.272 560.069 168.432C560.069 166.608 559.925 165.232 559.637 164.304C559.349 163.36 558.821 162.888 558.053 162.888C557.253 162.888 556.717 163.36 556.445 164.304C556.173 165.232 556.037 166.608 556.037 168.432ZM578.931 174.024C579.331 174.024 579.707 173.984 580.059 173.904C580.427 173.824 580.795 173.72 581.163 173.592V176.568C580.731 176.76 580.235 176.92 579.675 177.048C579.115 177.176 578.451 177.24 577.683 177.24C576.867 177.24 576.139 177.112 575.499 176.856C574.875 176.584 574.379 176.128 574.011 175.488C573.659 174.848 573.483 173.944 573.483 172.776V166.848H571.803V165.168L573.819 163.872L574.923 161.088H577.515V163.824H581.019V166.848H577.515V172.632C577.515 173.096 577.643 173.448 577.899 173.688C578.155 173.912 578.499 174.024 578.931 174.024ZM595.93 170.376C595.93 172.584 595.346 174.28 594.178 175.464C593.026 176.648 591.442 177.24 589.426 177.24C588.178 177.24 587.066 176.976 586.09 176.448C585.13 175.904 584.37 175.128 583.81 174.12C583.266 173.096 582.994 171.848 582.994 170.376C582.994 168.2 583.57 166.528 584.722 165.36C585.89 164.176 587.482 163.584 589.498 163.584C590.746 163.584 591.85 163.848 592.81 164.376C593.786 164.904 594.546 165.672 595.09 166.68C595.65 167.688 595.93 168.92 595.93 170.376ZM587.098 170.376C587.098 171.608 587.282 172.544 587.65 173.184C588.018 173.808 588.626 174.12 589.474 174.12C590.306 174.12 590.906 173.808 591.274 173.184C591.642 172.544 591.826 171.608 591.826 170.376C591.826 169.16 591.642 168.248 591.274 167.64C590.906 167.016 590.298 166.704 589.45 166.704C588.618 166.704 588.018 167.016 587.65 167.64C587.282 168.248 587.098 169.16 587.098 170.376ZM602.768 166.464C602.768 166.976 602.744 167.52 602.696 168.096C602.664 168.656 602.616 169.2 602.552 169.728H602.624C602.832 169.408 603.064 169.064 603.32 168.696C603.592 168.328 603.856 167.992 604.112 167.688L607.472 163.824H611.984L607.064 169.488L612.296 177H607.664L604.28 171.96L602.768 173.136V177H598.712V158.76H602.768V166.464ZM619.705 163.584C621.561 163.584 623.033 164.096 624.121 165.12C625.209 166.128 625.753 167.616 625.753 169.584V171.456H617.425C617.457 172.32 617.737 173.008 618.265 173.52C618.793 174.032 619.545 174.288 620.521 174.288C621.353 174.288 622.113 174.208 622.801 174.048C623.505 173.888 624.225 173.632 624.961 173.28V176.28C624.305 176.616 623.609 176.856 622.873 177C622.153 177.16 621.257 177.24 620.185 177.24C618.857 177.24 617.673 177 616.633 176.52C615.609 176.04 614.801 175.304 614.209 174.312C613.633 173.304 613.345 172.032 613.345 170.496C613.345 168.944 613.609 167.656 614.137 166.632C614.665 165.608 615.401 164.848 616.345 164.352C617.305 163.84 618.425 163.584 619.705 163.584ZM619.777 166.392C619.153 166.392 618.633 166.592 618.217 166.992C617.817 167.376 617.577 167.992 617.497 168.84H622.033C622.017 168.152 621.825 167.576 621.457 167.112C621.089 166.632 620.529 166.392 619.777 166.392ZM636.326 163.584C637.718 163.584 638.838 163.968 639.686 164.736C640.55 165.488 640.982 166.712 640.982 168.408V177H636.95V169.536C636.95 168.624 636.798 167.936 636.494 167.472C636.19 167.008 635.71 166.776 635.054 166.776C634.078 166.776 633.414 167.144 633.062 167.88C632.71 168.6 632.534 169.64 632.534 171V177H628.478V163.824H631.55L632.102 165.528H632.294C632.71 164.888 633.27 164.408 633.974 164.088C634.678 163.752 635.462 163.584 636.326 163.584ZM330.704 207.024C331.104 207.024 331.48 206.984 331.832 206.904C332.2 206.824 332.568 206.72 332.936 206.592V209.568C332.504 209.76 332.008 209.92 331.448 210.048C330.888 210.176 330.224 210.24 329.456 210.24C328.64 210.24 327.912 210.112 327.272 209.856C326.648 209.584 326.152 209.128 325.784 208.488C325.432 207.848 325.256 206.944 325.256 205.776V199.848H323.576V198.168L325.592 196.872L326.696 194.088H329.288V196.824H332.792V199.848H329.288V205.632C329.288 206.096 329.416 206.448 329.672 206.688C329.928 206.912 330.272 207.024 330.704 207.024ZM343.095 196.584C343.303 196.584 343.535 196.6 343.791 196.632C344.047 196.648 344.247 196.672 344.391 196.704L344.055 200.496C343.911 200.464 343.727 200.44 343.503 200.424C343.279 200.392 343.031 200.376 342.759 200.376C342.247 200.376 341.735 200.456 341.223 200.616C340.727 200.776 340.311 201.08 339.975 201.528C339.655 201.96 339.495 202.584 339.495 203.4V210H335.439V196.824H338.487L339.111 198.984H339.279C339.663 198.328 340.191 197.768 340.863 197.304C341.535 196.824 342.279 196.584 343.095 196.584ZM351.937 196.56C353.649 196.56 354.977 196.96 355.921 197.76C356.865 198.56 357.337 199.728 357.337 201.264V210H354.529L353.737 208.224H353.641C353.081 208.944 352.489 209.464 351.865 209.784C351.241 210.088 350.385 210.24 349.297 210.24C348.129 210.24 347.161 209.896 346.393 209.208C345.625 208.52 345.241 207.456 345.241 206.016C345.241 204.624 345.729 203.592 346.705 202.92C347.697 202.232 349.145 201.848 351.049 201.768L353.305 201.696V201.312C353.305 200.672 353.137 200.208 352.801 199.92C352.481 199.632 352.033 199.488 351.457 199.488C350.881 199.488 350.281 199.584 349.657 199.776C349.033 199.952 348.401 200.176 347.761 200.448L346.537 197.76C347.257 197.376 348.073 197.08 348.985 196.872C349.897 196.664 350.881 196.56 351.937 196.56ZM352.081 204.048C351.073 204.08 350.369 204.264 349.969 204.6C349.569 204.92 349.369 205.36 349.369 205.92C349.369 206.416 349.513 206.776 349.801 207C350.089 207.224 350.457 207.336 350.905 207.336C351.577 207.336 352.145 207.136 352.609 206.736C353.073 206.32 353.305 205.76 353.305 205.056V204L352.081 204.048ZM368.599 196.584C369.991 196.584 371.111 196.968 371.959 197.736C372.823 198.488 373.255 199.712 373.255 201.408V210H369.223V202.536C369.223 201.624 369.071 200.936 368.767 200.472C368.463 200.008 367.983 199.776 367.327 199.776C366.351 199.776 365.687 200.144 365.335 200.88C364.983 201.6 364.807 202.64 364.807 204V210H360.751V196.824H363.823L364.375 198.528H364.567C364.983 197.888 365.543 197.408 366.247 197.088C366.951 196.752 367.735 196.584 368.599 196.584ZM386.146 206.016C386.146 207.312 385.69 208.344 384.778 209.112C383.882 209.864 382.474 210.24 380.554 210.24C379.626 210.24 378.81 210.184 378.105 210.072C377.418 209.96 376.722 209.76 376.018 209.472V206.208C376.786 206.56 377.586 206.832 378.418 207.024C379.25 207.2 379.954 207.288 380.53 207.288C381.138 207.288 381.578 207.208 381.85 207.048C382.122 206.888 382.258 206.664 382.258 206.376C382.258 206.168 382.186 205.984 382.042 205.824C381.914 205.664 381.642 205.488 381.226 205.296C380.826 205.088 380.226 204.816 379.426 204.48C378.642 204.144 377.994 203.8 377.482 203.448C376.986 203.096 376.61 202.68 376.354 202.2C376.114 201.704 375.994 201.088 375.994 200.352C375.994 199.104 376.474 198.168 377.434 197.544C378.41 196.904 379.698 196.584 381.298 196.584C382.146 196.584 382.946 196.672 383.698 196.848C384.45 197.024 385.226 197.296 386.026 197.664L384.874 200.4C384.218 200.112 383.578 199.88 382.954 199.704C382.346 199.528 381.794 199.44 381.298 199.44C380.37 199.44 379.906 199.68 379.906 200.16C379.906 200.336 379.97 200.504 380.098 200.664C380.242 200.808 380.506 200.968 380.89 201.144C381.29 201.32 381.866 201.568 382.618 201.888C383.37 202.192 384.01 202.52 384.538 202.872C385.066 203.208 385.466 203.624 385.738 204.12C386.01 204.616 386.146 205.248 386.146 206.016ZM394.71 196.56C396.422 196.56 397.75 196.96 398.694 197.76C399.638 198.56 400.11 199.728 400.11 201.264V210H397.302L396.51 208.224H396.414C395.854 208.944 395.262 209.464 394.638 209.784C394.014 210.088 393.158 210.24 392.07 210.24C390.902 210.24 389.934 209.896 389.166 209.208C388.398 208.52 388.014 207.456 388.014 206.016C388.014 204.624 388.502 203.592 389.478 202.92C390.47 202.232 391.918 201.848 393.822 201.768L396.078 201.696V201.312C396.078 200.672 395.91 200.208 395.574 199.92C395.254 199.632 394.806 199.488 394.23 199.488C393.654 199.488 393.054 199.584 392.43 199.776C391.806 199.952 391.174 200.176 390.534 200.448L389.31 197.76C390.03 197.376 390.846 197.08 391.758 196.872C392.67 196.664 393.654 196.56 394.71 196.56ZM394.854 204.048C393.846 204.08 393.142 204.264 392.742 204.6C392.342 204.92 392.142 205.36 392.142 205.92C392.142 206.416 392.286 206.776 392.574 207C392.862 207.224 393.23 207.336 393.678 207.336C394.35 207.336 394.918 207.136 395.382 206.736C395.846 206.32 396.078 205.76 396.078 205.056V204L394.854 204.048ZM409.189 210.24C407.205 210.24 405.653 209.704 404.533 208.632C403.413 207.544 402.853 205.824 402.853 203.472C402.853 201.872 403.133 200.568 403.693 199.56C404.269 198.536 405.061 197.784 406.069 197.304C407.077 196.824 408.229 196.584 409.525 196.584C410.389 196.584 411.165 196.672 411.853 196.848C412.557 197.024 413.181 197.248 413.725 197.52L412.549 200.568C411.989 200.328 411.469 200.144 410.989 200.016C410.509 199.872 410.021 199.8 409.525 199.8C408.709 199.8 408.077 200.104 407.629 200.712C407.181 201.32 406.957 202.232 406.957 203.448C406.957 204.68 407.189 205.584 407.653 206.16C408.117 206.72 408.749 207 409.549 207C410.253 207 410.909 206.904 411.517 206.712C412.141 206.504 412.733 206.216 413.293 205.848V209.16C412.749 209.512 412.157 209.784 411.517 209.976C410.877 210.152 410.101 210.24 409.189 210.24ZM422.134 207.024C422.534 207.024 422.91 206.984 423.262 206.904C423.63 206.824 423.998 206.72 424.366 206.592V209.568C423.934 209.76 423.438 209.92 422.878 210.048C422.318 210.176 421.654 210.24 420.886 210.24C420.07 210.24 419.342 210.112 418.702 209.856C418.078 209.584 417.582 209.128 417.214 208.488C416.862 207.848 416.686 206.944 416.686 205.776V199.848H415.006V198.168L417.022 196.872L418.126 194.088H420.718V196.824H424.222V199.848H420.718V205.632C420.718 206.096 420.846 206.448 421.102 206.688C421.358 206.912 421.702 207.024 422.134 207.024ZM428.933 191.592C429.509 191.592 430.013 191.72 430.445 191.976C430.877 192.232 431.093 192.728 431.093 193.464C431.093 194.184 430.877 194.68 430.445 194.952C430.013 195.208 429.509 195.336 428.933 195.336C428.325 195.336 427.805 195.208 427.373 194.952C426.957 194.68 426.749 194.184 426.749 193.464C426.749 192.728 426.957 192.232 427.373 191.976C427.805 191.72 428.325 191.592 428.933 191.592ZM430.925 196.824V210H426.893V196.824H430.925ZM446.68 203.376C446.68 205.584 446.096 207.28 444.928 208.464C443.776 209.648 442.192 210.24 440.176 210.24C438.928 210.24 437.816 209.976 436.84 209.448C435.88 208.904 435.12 208.128 434.56 207.12C434.016 206.096 433.744 204.848 433.744 203.376C433.744 201.2 434.32 199.528 435.472 198.36C436.64 197.176 438.232 196.584 440.248 196.584C441.496 196.584 442.6 196.848 443.56 197.376C444.536 197.904 445.296 198.672 445.84 199.68C446.4 200.688 446.68 201.92 446.68 203.376ZM437.848 203.376C437.848 204.608 438.032 205.544 438.4 206.184C438.768 206.808 439.376 207.12 440.224 207.12C441.056 207.12 441.656 206.808 442.024 206.184C442.392 205.544 442.576 204.608 442.576 203.376C442.576 202.16 442.392 201.248 442.024 200.64C441.656 200.016 441.048 199.704 440.2 199.704C439.368 199.704 438.768 200.016 438.4 200.64C438.032 201.248 437.848 202.16 437.848 203.376ZM457.31 196.584C458.702 196.584 459.822 196.968 460.67 197.736C461.534 198.488 461.966 199.712 461.966 201.408V210H457.934V202.536C457.934 201.624 457.782 200.936 457.478 200.472C457.174 200.008 456.694 199.776 456.038 199.776C455.062 199.776 454.398 200.144 454.046 200.88C453.694 201.6 453.518 202.64 453.518 204V210H449.462V196.824H452.534L453.086 198.528H453.278C453.694 197.888 454.254 197.408 454.958 197.088C455.662 196.752 456.446 196.584 457.31 196.584ZM474.856 206.016C474.856 207.312 474.4 208.344 473.488 209.112C472.592 209.864 471.184 210.24 469.264 210.24C468.336 210.24 467.52 210.184 466.816 210.072C466.128 209.96 465.432 209.76 464.728 209.472V206.208C465.496 206.56 466.296 206.832 467.128 207.024C467.96 207.2 468.664 207.288 469.24 207.288C469.848 207.288 470.288 207.208 470.56 207.048C470.832 206.888 470.968 206.664 470.968 206.376C470.968 206.168 470.896 205.984 470.752 205.824C470.624 205.664 470.352 205.488 469.936 205.296C469.536 205.088 468.936 204.816 468.136 204.48C467.352 204.144 466.704 203.8 466.192 203.448C465.696 203.096 465.32 202.68 465.064 202.2C464.824 201.704 464.704 201.088 464.704 200.352C464.704 199.104 465.184 198.168 466.144 197.544C467.12 196.904 468.408 196.584 470.008 196.584C470.856 196.584 471.656 196.672 472.408 196.848C473.16 197.024 473.936 197.296 474.736 197.664L473.584 200.4C472.928 200.112 472.288 199.88 471.664 199.704C471.056 199.528 470.504 199.44 470.008 199.44C469.08 199.44 468.616 199.68 468.616 200.16C468.616 200.336 468.68 200.504 468.808 200.664C468.952 200.808 469.216 200.968 469.6 201.144C470 201.32 470.576 201.568 471.328 201.888C472.08 202.192 472.72 202.52 473.248 202.872C473.776 203.208 474.176 203.624 474.448 204.12C474.72 204.616 474.856 205.248 474.856 206.016ZM493.663 204.84C493.583 204.568 493.495 204.2 493.399 203.736C493.303 203.272 493.199 202.784 493.087 202.272C492.975 201.76 492.879 201.296 492.799 200.88C492.719 200.448 492.655 200.128 492.607 199.92H492.511C492.479 200.128 492.415 200.448 492.319 200.88C492.239 201.296 492.143 201.768 492.031 202.296C491.919 202.808 491.807 203.304 491.695 203.784C491.599 204.248 491.519 204.64 491.455 204.96L490.255 210H485.959L482.287 196.824H486.271L487.591 202.296C487.687 202.68 487.775 203.144 487.855 203.688C487.951 204.232 488.031 204.768 488.095 205.296C488.175 205.824 488.231 206.264 488.263 206.616H488.335C488.351 206.344 488.383 206.016 488.431 205.632C488.495 205.232 488.559 204.832 488.623 204.432C488.703 204.016 488.775 203.648 488.839 203.328C488.903 203.008 488.943 202.792 488.959 202.68L490.399 196.824H494.863L496.207 202.704C496.255 202.96 496.327 203.336 496.423 203.832C496.519 204.312 496.599 204.808 496.663 205.32C496.743 205.832 496.799 206.264 496.831 206.616H496.903C496.935 206.28 496.983 205.848 497.047 205.32C497.127 204.776 497.215 204.232 497.311 203.688C497.407 203.144 497.503 202.68 497.599 202.296L498.967 196.824H502.903L499.183 210H494.839L493.663 204.84ZM506.956 191.592C507.532 191.592 508.036 191.72 508.468 191.976C508.9 192.232 509.116 192.728 509.116 193.464C509.116 194.184 508.9 194.68 508.468 194.952C508.036 195.208 507.532 195.336 506.956 195.336C506.348 195.336 505.828 195.208 505.396 194.952C504.98 194.68 504.772 194.184 504.772 193.464C504.772 192.728 504.98 192.232 505.396 191.976C505.828 191.72 506.348 191.592 506.956 191.592ZM508.948 196.824V210H504.916V196.824H508.948ZM518.415 207.024C518.815 207.024 519.191 206.984 519.543 206.904C519.911 206.824 520.279 206.72 520.647 206.592V209.568C520.215 209.76 519.719 209.92 519.159 210.048C518.599 210.176 517.935 210.24 517.167 210.24C516.351 210.24 515.623 210.112 514.983 209.856C514.359 209.584 513.863 209.128 513.495 208.488C513.143 207.848 512.967 206.944 512.967 205.776V199.848H511.287V198.168L513.303 196.872L514.407 194.088H516.999V196.824H520.503V199.848H516.999V205.632C516.999 206.096 517.127 206.448 517.383 206.688C517.639 206.912 517.983 207.024 518.415 207.024ZM527.206 194.952C527.206 195.752 527.182 196.472 527.134 197.112C527.086 197.736 527.046 198.192 527.014 198.48H527.23C527.646 197.792 528.166 197.304 528.79 197.016C529.43 196.728 530.15 196.584 530.95 196.584C531.862 196.584 532.67 196.752 533.374 197.088C534.094 197.424 534.654 197.944 535.054 198.648C535.454 199.352 535.654 200.272 535.654 201.408V210H531.598V202.536C531.598 200.696 530.974 199.776 529.726 199.776C528.766 199.776 528.102 200.144 527.734 200.88C527.382 201.6 527.206 202.632 527.206 203.976V210H523.15V191.76H527.206V194.952ZM551.328 203.376C551.328 205.584 550.744 207.28 549.576 208.464C548.424 209.648 546.84 210.24 544.824 210.24C543.576 210.24 542.464 209.976 541.488 209.448C540.528 208.904 539.768 208.128 539.208 207.12C538.664 206.096 538.392 204.848 538.392 203.376C538.392 201.2 538.968 199.528 540.12 198.36C541.288 197.176 542.88 196.584 544.896 196.584C546.144 196.584 547.248 196.848 548.208 197.376C549.184 197.904 549.944 198.672 550.488 199.68C551.048 200.688 551.328 201.92 551.328 203.376ZM542.496 203.376C542.496 204.608 542.68 205.544 543.048 206.184C543.416 206.808 544.024 207.12 544.872 207.12C545.704 207.12 546.304 206.808 546.672 206.184C547.04 205.544 547.224 204.608 547.224 203.376C547.224 202.16 547.04 201.248 546.672 200.64C546.304 200.016 545.696 199.704 544.848 199.704C544.016 199.704 543.416 200.016 543.048 200.64C542.68 201.248 542.496 202.16 542.496 203.376ZM566.567 196.824V210H563.495L562.967 208.32H562.727C562.311 208.992 561.743 209.48 561.023 209.784C560.303 210.088 559.535 210.24 558.719 210.24C557.359 210.24 556.239 209.856 555.359 209.088C554.495 208.32 554.063 207.096 554.063 205.416V196.824H558.119V204.288C558.119 205.184 558.263 205.864 558.551 206.328C558.855 206.792 559.335 207.024 559.991 207.024C560.967 207.024 561.631 206.664 561.983 205.944C562.335 205.224 562.511 204.184 562.511 202.824V196.824H566.567ZM576.001 207.024C576.401 207.024 576.777 206.984 577.129 206.904C577.497 206.824 577.865 206.72 578.233 206.592V209.568C577.801 209.76 577.305 209.92 576.745 210.048C576.185 210.176 575.521 210.24 574.753 210.24C573.937 210.24 573.209 210.112 572.569 209.856C571.945 209.584 571.449 209.128 571.081 208.488C570.729 207.848 570.553 206.944 570.553 205.776V199.848H568.873V198.168L570.889 196.872L571.993 194.088H574.585V196.824H578.089V199.848H574.585V205.632C574.585 206.096 574.713 206.448 574.969 206.688C575.225 206.912 575.569 207.024 576.001 207.024ZM592.874 196.56C594.586 196.56 595.914 196.96 596.858 197.76C597.802 198.56 598.274 199.728 598.274 201.264V210H595.466L594.674 208.224H594.578C594.018 208.944 593.426 209.464 592.802 209.784C592.178 210.088 591.322 210.24 590.234 210.24C589.066 210.24 588.098 209.896 587.33 209.208C586.562 208.52 586.178 207.456 586.178 206.016C586.178 204.624 586.666 203.592 587.642 202.92C588.634 202.232 590.082 201.848 591.986 201.768L594.242 201.696V201.312C594.242 200.672 594.074 200.208 593.738 199.92C593.418 199.632 592.97 199.488 592.394 199.488C591.818 199.488 591.218 199.584 590.594 199.776C589.97 199.952 589.338 200.176 588.698 200.448L587.474 197.76C588.194 197.376 589.01 197.08 589.922 196.872C590.834 196.664 591.818 196.56 592.874 196.56ZM593.018 204.048C592.01 204.08 591.306 204.264 590.906 204.6C590.506 204.92 590.306 205.36 590.306 205.92C590.306 206.416 590.45 206.776 590.738 207C591.026 207.224 591.394 207.336 591.842 207.336C592.514 207.336 593.082 207.136 593.546 206.736C594.01 206.32 594.242 205.76 594.242 205.056V204L593.018 204.048ZM609.369 196.584C610.841 196.584 612.017 197.168 612.897 198.336C613.777 199.488 614.217 201.168 614.217 203.376C614.217 204.88 614.001 206.144 613.569 207.168C613.137 208.176 612.545 208.944 611.793 209.472C611.057 209.984 610.209 210.24 609.249 210.24C608.305 210.24 607.561 210.072 607.017 209.736C606.489 209.4 606.065 209.032 605.745 208.632H605.577C605.625 208.936 605.665 209.256 605.697 209.592C605.729 209.928 605.745 210.288 605.745 210.672V215.76H601.689V196.824H604.977L605.553 198.504H605.745C606.081 197.992 606.537 197.544 607.113 197.16C607.689 196.776 608.441 196.584 609.369 196.584ZM607.953 199.776C607.137 199.776 606.569 200.048 606.249 200.592C605.929 201.12 605.761 201.92 605.745 202.992V203.352C605.745 204.52 605.905 205.416 606.225 206.04C606.545 206.664 607.137 206.976 608.001 206.976C609.393 206.976 610.089 205.76 610.089 203.328C610.089 202.096 609.913 201.2 609.561 200.64C609.209 200.064 608.673 199.776 607.953 199.776ZM624.674 196.584C626.146 196.584 627.322 197.168 628.202 198.336C629.082 199.488 629.522 201.168 629.522 203.376C629.522 204.88 629.306 206.144 628.874 207.168C628.442 208.176 627.85 208.944 627.098 209.472C626.362 209.984 625.514 210.24 624.554 210.24C623.61 210.24 622.866 210.072 622.322 209.736C621.794 209.4 621.37 209.032 621.05 208.632H620.882C620.93 208.936 620.97 209.256 621.002 209.592C621.034 209.928 621.05 210.288 621.05 210.672V215.76H616.994V196.824H620.282L620.858 198.504H621.05C621.386 197.992 621.842 197.544 622.418 197.16C622.994 196.776 623.746 196.584 624.674 196.584ZM623.258 199.776C622.442 199.776 621.874 200.048 621.554 200.592C621.234 201.12 621.066 201.92 621.05 202.992V203.352C621.05 204.52 621.21 205.416 621.53 206.04C621.85 206.664 622.442 206.976 623.306 206.976C624.698 206.976 625.394 205.76 625.394 203.328C625.394 202.096 625.218 201.2 624.866 200.64C624.514 200.064 623.978 199.776 623.258 199.776ZM639.954 196.584C640.162 196.584 640.394 196.6 640.65 196.632C640.906 196.648 641.106 196.672 641.25 196.704L640.914 200.496C640.77 200.464 640.586 200.44 640.362 200.424C640.138 200.392 639.89 200.376 639.618 200.376C639.106 200.376 638.594 200.456 638.082 200.616C637.586 200.776 637.17 201.08 636.834 201.528C636.514 201.96 636.354 202.584 636.354 203.4V210H632.298V196.824H635.346L635.97 198.984H636.138C636.522 198.328 637.05 197.768 637.722 197.304C638.394 196.824 639.138 196.584 639.954 196.584ZM655.156 203.376C655.156 205.584 654.572 207.28 653.404 208.464C652.252 209.648 650.668 210.24 648.652 210.24C647.404 210.24 646.292 209.976 645.316 209.448C644.356 208.904 643.596 208.128 643.036 207.12C642.492 206.096 642.22 204.848 642.22 203.376C642.22 201.2 642.796 199.528 643.948 198.36C645.116 197.176 646.708 196.584 648.724 196.584C649.972 196.584 651.076 196.848 652.036 197.376C653.012 197.904 653.772 198.672 654.316 199.68C654.876 200.688 655.156 201.92 655.156 203.376ZM646.324 203.376C646.324 204.608 646.508 205.544 646.876 206.184C647.244 206.808 647.852 207.12 648.7 207.12C649.532 207.12 650.132 206.808 650.5 206.184C650.868 205.544 651.052 204.608 651.052 203.376C651.052 202.16 650.868 201.248 650.5 200.64C650.132 200.016 649.524 199.704 648.676 199.704C647.844 199.704 647.244 200.016 646.876 200.64C646.508 201.248 646.324 202.16 646.324 203.376ZM660.758 210L655.742 196.824H659.966L662.366 204.456C662.446 204.728 662.518 205.064 662.582 205.464C662.662 205.848 662.71 206.2 662.726 206.52H662.822C662.838 206.184 662.878 205.832 662.942 205.464C663.022 205.096 663.11 204.768 663.206 204.48L665.654 196.824H669.854L664.838 210H660.758ZM677.484 196.56C679.196 196.56 680.524 196.96 681.468 197.76C682.412 198.56 682.884 199.728 682.884 201.264V210H680.076L679.284 208.224H679.188C678.628 208.944 678.036 209.464 677.412 209.784C676.788 210.088 675.932 210.24 674.844 210.24C673.676 210.24 672.708 209.896 671.94 209.208C671.172 208.52 670.788 207.456 670.788 206.016C670.788 204.624 671.276 203.592 672.252 202.92C673.244 202.232 674.692 201.848 676.596 201.768L678.852 201.696V201.312C678.852 200.672 678.684 200.208 678.348 199.92C678.028 199.632 677.58 199.488 677.004 199.488C676.428 199.488 675.828 199.584 675.204 199.776C674.58 199.952 673.948 200.176 673.308 200.448L672.084 197.76C672.804 197.376 673.62 197.08 674.532 196.872C675.444 196.664 676.428 196.56 677.484 196.56ZM677.628 204.048C676.62 204.08 675.916 204.264 675.516 204.6C675.116 204.92 674.916 205.36 674.916 205.92C674.916 206.416 675.06 206.776 675.348 207C675.636 207.224 676.004 207.336 676.452 207.336C677.124 207.336 677.692 207.136 678.156 206.736C678.62 206.32 678.852 205.76 678.852 205.056V204L677.628 204.048ZM690.354 210H686.298V191.76H690.354V210ZM693.294 208.2C693.294 207.416 693.51 206.872 693.942 206.568C694.39 206.248 694.926 206.088 695.55 206.088C696.158 206.088 696.678 206.248 697.11 206.568C697.542 206.872 697.758 207.416 697.758 208.2C697.758 208.952 697.542 209.496 697.11 209.832C696.678 210.152 696.158 210.312 695.55 210.312C694.926 210.312 694.39 210.152 693.942 209.832C693.51 209.496 693.294 208.952 693.294 208.2Z" fill="white"/>
<path d="M501.03 67.5437C501.03 67.5437 505.866 68.981 508.619 67.5437C500.425 64.1559 497.201 58.2015 497.201 53.2738C497.201 45.4715 503.784 39.6198 514.53 44.7529C514.53 44.7529 515.672 38.6958 517.821 35L519.701 35.5133L517.418 47.1141L515.336 48.5513C505.396 44.6502 500.425 46.6008 500.425 53.2738C500.425 61.076 511.642 62.4106 511.642 67.7491C511.642 71.0342 507.075 73.1901 500.493 70.3156L501.03 67.5437ZM499.216 77.1939L501.299 75.654C510.836 78.5285 516.209 73.7034 516.209 68.057C516.209 63.6426 512.716 58.6122 505.396 56.5589L506 53.7871C514.731 55.635 520.104 61.1787 520.104 67.7491C520.104 77.8099 512.045 81.9164 502.104 79.1445C502.104 79.1445 501.299 83.3536 498.881 89L497 88.4867L499.216 77.1939Z" fill="white"/>
<path d="M0 48.28H265.09" stroke="#7C85FF" stroke-width="1.5" stroke-miterlimit="10"/>
<path d="M738.48 0.75H265.48V295.75H738.48V0.75Z" stroke="#7C85FF" stroke-width="1.5" stroke-miterlimit="10"/>
<circle cx="306.5" cy="137.5" r="5.5" stroke="white" stroke-width="2"/>
</g>
<defs>
<clipPath id="clip0">
<rect width="739.23" height="296.5" fill="white"/>
</clipPath>
</defs>
</svg>
