<svg width="53" height="58" viewBox="0 0 53 58" fill="none" xmlns="http://www.w3.org/2000/svg">
<path d="M11.1344 7.77991H11.5832V10.8543H13.0567V11.2299H11.1344V7.77991Z" fill="white"/>
<path d="M16.2999 9.46992C16.2999 10.6523 15.579 11.284 14.699 11.284C13.7856 11.284 13.149 10.5759 13.149 9.53357C13.149 8.44193 13.8254 7.72424 14.7404 7.72424C15.6554 7.72424 16.2999 8.44511 16.2999 9.46992ZM13.6201 9.52402C13.6201 10.2624 14.0211 10.9228 14.7245 10.9228C15.4278 10.9228 15.8288 10.2719 15.8288 9.4906C15.8288 8.80475 15.4708 8.08706 14.7292 8.08706C13.9877 8.08706 13.6201 8.76974 13.6201 9.52402Z" fill="white"/>
<path d="M17.4488 11.2283L16.5783 7.77991H17.0557L17.4663 9.53036C17.5665 9.9616 17.6588 10.3897 17.7193 10.7223H17.732C17.7877 10.3801 17.8911 9.96956 18.0121 9.52558L18.4752 7.78627H18.9366L19.3583 9.53672C19.4538 9.95046 19.5477 10.3562 19.6002 10.7191H19.6018C19.6702 10.3419 19.7609 9.95683 19.8739 9.52876L20.329 7.78945H20.7873L19.8087 11.2283H19.344L18.9096 9.43328C18.8124 9.06289 18.7365 8.68726 18.682 8.30822H18.6709C18.6052 8.68882 18.5165 9.06506 18.4051 9.43488L17.9182 11.2299L17.4488 11.2283Z" fill="white"/>
<path d="M28.4305 50.8601H4.36975C3.21273 50.8592 2.1032 50.3999 1.28417 49.5826C0.465137 48.7654 0.00336803 47.6569 0 46.4999V9.70703C0 7.13257 1.0227 4.66354 2.84312 2.84312C4.66354 1.0227 7.13257 0 9.70703 0H23.1027C24.3775 0 25.6397 0.251079 26.8175 0.738903C27.9952 1.22673 29.0653 1.94174 29.9666 2.84312C30.868 3.7445 31.583 4.8146 32.0709 5.99231C32.5587 7.17002 32.8098 8.43228 32.8098 9.70703V46.4999C32.8064 47.6585 32.3433 48.7685 31.5222 49.586C30.7011 50.4035 29.5891 50.8618 28.4305 50.8601ZM9.70226 0.68904C7.31172 0.692409 5.02008 1.64365 3.32986 3.33416C1.63964 5.02468 0.688804 7.31649 0.685858 9.70703V46.4999C0.687122 47.4763 1.0757 48.4125 1.76634 49.1028C2.45698 49.7931 3.39326 50.1813 4.36975 50.1822H28.4305C29.4067 50.1809 30.3426 49.7925 31.0328 49.1022C31.7231 48.4119 32.1115 47.4761 32.1128 46.4999V9.70703C32.1098 7.31759 31.1599 5.02674 29.471 3.33641C27.7822 1.64607 25.4922 0.694092 23.1027 0.68904H9.70226ZM22.21 21.7437H10.5934C8.66431 21.7416 6.81482 20.9745 5.4506 19.6106C4.08638 18.2467 3.31883 16.3973 3.3163 14.4682V11.5084C3.31883 9.57932 4.08638 7.72999 5.4506 6.36607C6.81482 5.00216 8.66431 4.23501 10.5934 4.2329H22.21C24.1392 4.23459 25.989 5.0016 27.3533 6.36561C28.7176 7.72962 29.485 9.57919 29.4871 11.5084V14.4682C29.485 16.3975 28.7176 18.247 27.3533 19.611C25.989 20.975 24.1392 21.7421 22.21 21.7437ZM10.5934 4.91876C8.84691 4.92171 7.17285 5.61702 5.9382 6.85227C4.70354 8.08752 4.00904 9.76192 4.00694 11.5084V14.4682C4.00904 16.2156 4.7042 17.8907 5.93989 19.1261C7.17557 20.3615 8.85086 21.0562 10.5982 21.0579H22.2148C23.9621 21.0562 25.6374 20.3615 26.8731 19.1261C28.1087 17.8907 28.8039 16.2156 28.806 14.4682V11.5084C28.8039 9.76026 28.1081 8.08442 26.8714 6.8489C25.6347 5.61338 23.9581 4.91918 22.21 4.91876H10.5934Z" fill="white"/>
<path d="M31.0323 57.0311H1.76636C1.29802 57.0307 0.848986 56.8444 0.517821 56.5133C0.186655 56.1821 0.000421358 55.7331 0 55.2647V54.1126C0.000421358 53.6443 0.186655 53.1952 0.517821 52.8641C0.848986 52.5329 1.29802 52.3467 1.76636 52.3463H31.0323C31.5006 52.3467 31.9496 52.5329 32.2808 52.8641C32.612 53.1952 32.7982 53.6443 32.7986 54.1126V55.2647C32.7982 55.7331 32.612 56.1821 32.2808 56.5133C31.9496 56.8444 31.5006 57.0307 31.0323 57.0311ZM1.76636 53.0321C1.47979 53.0321 1.20496 53.146 1.00233 53.3486C0.799696 53.5512 0.685858 53.826 0.685858 54.1126V55.2647C0.685857 55.5514 0.799645 55.8264 1.00223 56.0293C1.20482 56.2322 1.47965 56.3464 1.76636 56.3468H31.0323C31.319 56.3464 31.5938 56.2322 31.7964 56.0293C31.999 55.8264 32.1128 55.5514 32.1128 55.2647V54.1126C32.1128 53.826 31.9989 53.5512 31.7963 53.3486C31.5937 53.146 31.3188 53.0321 31.0323 53.0321H1.76636Z" fill="white"/>
<path d="M32.7605 39.0413C32.9005 39.2959 33.0676 39.5648 33.2378 39.8194C33.4081 40.074 33.5848 40.3287 33.7678 40.5769C34.1334 41.0744 34.5249 41.5525 34.9406 42.0091C35.7612 42.9193 36.6943 43.7214 37.7174 44.3961C38.7271 45.0647 39.8472 45.5496 41.0257 45.8282C41.6044 45.9599 42.1973 46.0187 42.7905 46.0033C43.3768 45.9858 43.9576 45.8851 44.5155 45.7041C45.0749 45.5202 45.607 45.2616 46.0973 44.9355C46.5891 44.6065 47.0427 44.2239 47.4499 43.7945C47.8655 43.3596 48.2385 42.8859 48.5638 42.3799C48.7229 42.1284 48.8821 41.8675 49.0142 41.6017C49.0826 41.4696 49.1478 41.3344 49.2099 41.1991C49.2644 41.0732 49.3111 40.944 49.3499 40.8124C49.5234 40.2443 49.6602 39.6317 49.7859 39.0254C49.9117 38.4191 50.0231 37.8032 50.1265 37.189C50.3334 35.9573 50.5052 34.7177 50.65 33.4764C50.7232 32.8558 50.7869 32.2336 50.8458 31.6114C50.9046 30.9892 50.9556 30.3654 51.0049 29.7416C51.094 28.4956 51.1561 27.248 51.1831 25.9988C51.2518 23.5084 51.1406 21.0163 50.8505 18.5419C50.7023 17.3149 50.4774 16.0984 50.1774 14.8994C50.0278 14.3027 49.8496 13.7155 49.6475 13.1394C49.4482 12.5657 49.2133 12.005 48.9441 11.4606C48.8757 11.3253 48.8137 11.1869 48.7389 11.058L48.5177 10.6649C48.3585 10.4103 48.1994 10.1557 48.0275 9.917C47.685 9.43694 47.2936 8.99377 46.8595 8.59462C46.7481 8.50232 46.6399 8.40684 46.5285 8.31136C46.4171 8.21588 46.2994 8.13473 46.1832 8.04402C46.1268 7.99853 46.0672 7.95705 46.005 7.9199L45.8236 7.80055C45.7029 7.71885 45.5781 7.64343 45.4496 7.57458C44.9314 7.28728 44.3875 7.04913 43.8249 6.86326H43.8169C43.7386 6.83533 43.6729 6.78006 43.6321 6.7076C43.5912 6.63515 43.5779 6.55039 43.5946 6.46889C43.6112 6.3874 43.6567 6.31465 43.7227 6.26402C43.7887 6.2134 43.8707 6.18829 43.9538 6.19332C44.6237 6.24549 45.2797 6.41179 45.8936 6.68504C46.205 6.81789 46.5042 6.97763 46.7879 7.16243C46.9263 7.2595 47.0712 7.34862 47.2048 7.45205L47.5963 7.77032C48.0899 8.21846 48.5333 8.71896 48.9187 9.26297C49.116 9.53031 49.2879 9.81197 49.4597 10.0936L49.7 10.536C49.7828 10.6777 49.8496 10.8272 49.9244 10.9736C50.2105 11.5581 50.4603 12.1597 50.6723 12.775C50.8855 13.3861 51.0717 14.0051 51.2261 14.6305C51.5333 15.8738 51.7634 17.135 51.9151 18.4067C52.2038 20.9339 52.3101 23.4786 52.2334 26.0211C52.1676 28.5556 51.9782 31.081 51.6653 33.5974C51.5062 34.8529 51.3247 36.1069 51.1036 37.3561C50.9938 37.9799 50.8744 38.6037 50.7407 39.2259C50.6071 39.8481 50.4638 40.4671 50.2633 41.102C50.212 41.2713 50.1498 41.4372 50.0772 41.5985C50.0071 41.7481 49.9339 41.8977 49.856 42.0425C49.6968 42.3337 49.5377 42.6186 49.3563 42.8939C48.9965 43.447 48.5846 43.9644 48.1262 44.439C47.6662 44.9192 47.1538 45.3462 46.5985 45.7121C46.0368 46.079 45.4283 46.3686 44.7892 46.573C44.1475 46.7736 43.4803 46.8808 42.808 46.8912C42.142 46.8997 41.4775 46.8249 40.83 46.6685C39.5563 46.3503 38.3494 45.8083 37.2655 45.0676C36.1969 44.3403 35.2248 43.4805 34.3725 42.5088C33.9476 42.0265 33.5482 41.5224 33.1758 40.9986C32.9912 40.7376 32.8114 40.4719 32.6395 40.2029C32.4676 39.934 32.3053 39.6603 32.1478 39.3611C32.1264 39.3215 32.113 39.2781 32.1083 39.2333C32.1037 39.1885 32.1079 39.1433 32.1208 39.1001C32.1336 39.057 32.1549 39.0168 32.1833 38.9818C32.2116 38.9469 32.2466 38.9179 32.2862 38.8965C32.3258 38.875 32.3693 38.8616 32.4141 38.857C32.4588 38.8524 32.5041 38.8566 32.5472 38.8695C32.5904 38.8823 32.6306 38.9035 32.6655 38.9319C32.7005 38.9603 32.7295 38.9953 32.7509 39.0349L32.7605 39.0413Z" fill="white"/>
<path d="M47.9559 19.266C47.4763 19.2649 47.0094 19.1113 46.6227 18.8276C46.236 18.5439 45.9495 18.1446 45.8044 17.6874L44.5966 13.8778C44.5067 13.595 44.4735 13.2972 44.4988 13.0015C44.5242 12.7058 44.6076 12.418 44.7443 12.1546C44.881 11.8912 45.0684 11.6573 45.2956 11.4664C45.5229 11.2755 45.7855 11.1313 46.0686 11.0421L47.1602 10.6952C47.4431 10.6055 47.7408 10.5724 48.0365 10.5979C48.3321 10.6233 48.6198 10.7068 48.8832 10.8435C49.1465 10.9802 49.3804 11.1674 49.5713 11.3946C49.7622 11.6217 49.9065 11.8842 49.996 12.1672L51.2038 15.9768C51.3841 16.5476 51.3305 17.1666 51.0548 17.698C50.7791 18.2293 50.3039 18.6296 49.7334 18.8109L48.6418 19.1578C48.42 19.2289 48.1887 19.2654 47.9559 19.266ZM47.8445 11.5036C47.7057 11.5036 47.5678 11.525 47.4355 11.5672L46.3439 11.9125C46.1754 11.9659 46.019 12.052 45.8838 12.1658C45.7486 12.2797 45.6372 12.4191 45.5559 12.5761C45.4746 12.733 45.425 12.9045 45.4101 13.0806C45.3951 13.2567 45.415 13.4341 45.4687 13.6025L46.6765 17.4121C46.7297 17.5806 46.8156 17.7369 46.9293 17.8721C47.043 18.0073 47.1822 18.1187 47.3391 18.2C47.4959 18.2813 47.6673 18.3309 47.8433 18.3459C48.0193 18.3609 48.1965 18.341 48.3649 18.2874L49.4565 17.942C49.7966 17.8338 50.08 17.5952 50.2443 17.2783C50.4087 16.9615 50.4407 16.5924 50.3333 16.2521L49.1255 12.4456C49.0395 12.1748 48.8701 11.9381 48.6414 11.7695C48.4127 11.6009 48.1366 11.5089 47.8525 11.5068L47.8445 11.5036Z" fill="white"/>
<path d="M15.2735 15.3959L8.948 13.367L14.7881 16.5321C14.7972 16.8696 14.9214 17.1938 15.1401 17.451C15.3587 17.7081 15.6587 17.8828 15.9903 17.9461C16.3219 18.0093 16.6652 17.9572 16.9632 17.7986C17.2611 17.6399 17.4959 17.3841 17.6285 17.0737C17.7611 16.7632 17.7836 16.4168 17.6922 16.0918C17.6009 15.7668 17.4012 15.4829 17.1262 15.287C16.8513 15.0911 16.5176 14.9951 16.1806 15.0149C15.8437 15.0348 15.5236 15.1692 15.2735 15.3959Z" fill="white"/>
<path d="M43.0722 2.527C43.1963 2.80548 43.4939 4.15491 43.1295 4.01488C42.8446 3.90508 42.1858 3.25582 42.0617 2.97575C42.0322 2.9094 42.0161 2.83789 42.0143 2.76532C42.0124 2.69274 42.0249 2.62052 42.051 2.55277C42.0771 2.48502 42.1163 2.42307 42.1663 2.37045C42.2163 2.31784 42.2762 2.27559 42.3425 2.24613C42.4089 2.21666 42.4804 2.20056 42.553 2.19872C42.6256 2.19689 42.6978 2.20937 42.7655 2.23545C42.8333 2.26153 42.8952 2.3007 42.9478 2.35073C43.0005 2.40075 43.0427 2.46065 43.0722 2.527Z" fill="white"/>
<path d="M39.3851 3.53434C39.662 3.66323 40.7727 4.48912 40.4051 4.61961C40.1171 4.72305 39.1941 4.66576 38.9172 4.53686C38.8479 4.50842 38.7851 4.46621 38.7326 4.41278C38.6801 4.35935 38.6389 4.29582 38.6117 4.22603C38.5844 4.15624 38.5716 4.08164 38.574 4.00676C38.5764 3.93187 38.594 3.85825 38.6257 3.79036C38.6573 3.72246 38.7025 3.6617 38.7583 3.61176C38.8142 3.56181 38.8796 3.52372 38.9506 3.49978C39.0216 3.47585 39.0967 3.46657 39.1714 3.47251C39.2461 3.47845 39.3188 3.49948 39.3851 3.53434Z" fill="white"/>
<path d="M40.1776 6.86017C40.4831 6.86017 41.8357 7.13547 41.5604 7.41236C41.344 7.62878 40.4831 7.96614 40.1776 7.96614C40.1025 7.97017 40.0273 7.95885 39.9567 7.93288C39.8861 7.90691 39.8215 7.86683 39.767 7.81509C39.7124 7.76334 39.6689 7.70102 39.6392 7.63191C39.6094 7.56281 39.5941 7.48838 39.5941 7.41315C39.5941 7.33793 39.6094 7.2635 39.6392 7.19439C39.6689 7.12529 39.7124 7.06296 39.767 7.01122C39.8215 6.95947 39.8861 6.91939 39.9567 6.89342C40.0273 6.86745 40.1025 6.85614 40.1776 6.86017Z" fill="white"/>
</svg>
