<svg width="51" height="56" viewBox="0 0 51 56" fill="none" xmlns="http://www.w3.org/2000/svg">
<path d="M27.4311 49.0539H4.2154C3.09904 49.0531 2.02853 48.6098 1.2384 47.8211C0.448268 47.0325 0.00294744 45.9628 0 44.8465V9.36012C0.0025276 6.87844 0.989492 4.49912 2.74431 2.74431C4.49912 0.989492 6.87844 0.0025276 9.36012 0H22.28C24.7617 0.0025276 27.141 0.989492 28.8958 2.74431C30.6507 4.49912 31.6376 6.87844 31.6401 9.36012V44.8465C31.6372 45.9617 31.1928 47.0304 30.404 47.8189C29.6152 48.6074 28.5464 49.0514 27.4311 49.0539ZM9.36012 0.655622C7.05289 0.658572 4.84107 1.57675 3.21006 3.20866C1.57904 4.84057 0.662081 7.05289 0.660397 9.36012V44.8465C0.66166 45.7888 1.03666 46.6921 1.70312 47.3583C2.36959 48.0245 3.27309 48.399 4.2154 48.3999H27.4311C28.3723 48.3974 29.2742 48.022 29.9393 47.356C30.6044 46.6901 30.9785 45.7877 30.9797 44.8465V9.36012C30.9781 7.05289 30.0611 4.84057 28.4301 3.20866C26.7991 1.57675 24.5873 0.658572 22.28 0.655622H9.36012ZM21.4255 20.9672H10.2163C8.35526 20.9651 6.5711 20.2249 5.25519 18.909C3.93927 17.593 3.19906 15.8089 3.19695 13.9479V11.0931C3.19906 9.23208 3.93927 7.44792 5.25519 6.132C6.5711 4.81608 8.35526 4.07588 10.2163 4.07377H21.4255C23.2865 4.07588 25.0706 4.81608 26.3866 6.132C27.7025 7.44792 28.4427 9.23208 28.4448 11.0931V13.9479C28.4427 15.8089 27.7025 17.593 26.3866 18.909C25.0706 20.2249 23.2865 20.9651 21.4255 20.9672ZM10.2163 4.73576C8.52946 4.73787 6.91247 5.40942 5.72047 6.60291C4.52847 7.7964 3.85894 9.41423 3.85894 11.101V13.9558C3.85894 15.6426 4.52847 17.2605 5.72047 18.454C6.91247 19.6474 8.52946 20.319 10.2163 20.3211H21.4255C23.1123 20.3211 24.7301 19.6516 25.9236 18.4596C27.1171 17.2676 27.7886 15.6506 27.7908 13.9638V11.0931C27.7886 9.40627 27.1171 7.78929 25.9236 6.59729C24.7301 5.40529 23.1123 4.73576 21.4255 4.73576H10.2163Z" fill="white"/>
<path d="M29.9358 55.0071H1.7043C1.25257 55.0071 0.819313 54.8277 0.49974 54.5085C0.180168 54.1892 0.000421786 53.7561 0 53.3044V52.1904C0.000421333 51.7386 0.180117 51.3053 0.499644 50.9858C0.81917 50.6663 1.25242 50.4866 1.7043 50.4861H29.9358C30.3877 50.4866 30.821 50.6663 31.1405 50.9858C31.46 51.3053 31.6397 51.7386 31.6401 52.1904V53.3044C31.6397 53.7561 31.46 54.1892 31.1404 54.5085C30.8208 54.8277 30.3876 55.0071 29.9358 55.0071ZM1.7043 51.1497C1.42772 51.1497 1.16244 51.2595 0.966711 51.4549C0.770987 51.6503 0.660818 51.9155 0.660397 52.192V53.306C0.660818 53.5825 0.770987 53.8477 0.966711 54.0431C1.16244 54.2385 1.42772 54.3483 1.7043 54.3483H29.9358C30.2124 54.3483 30.4777 54.2385 30.6734 54.0431C30.8692 53.8477 30.9793 53.5825 30.9797 53.306V52.192C30.9793 51.9155 30.8692 51.6503 30.6734 51.4549C30.4777 51.2595 30.2124 51.1497 29.9358 51.1497H1.7043Z" fill="white"/>
<path d="M31.6036 37.6522C31.7388 37.8988 31.8995 38.1566 32.0619 38.4033C32.2242 38.6499 32.3944 38.895 32.5711 39.1353C32.9245 39.6131 33.3021 40.0726 33.7025 40.5118C34.4947 41.3911 35.3951 42.1664 36.3823 42.8192C37.355 43.4682 38.4353 43.9391 39.5729 44.21C40.1317 44.3331 40.7036 44.3866 41.2756 44.3691C41.842 44.351 42.403 44.2524 42.9417 44.0763C43.4816 43.8985 43.9949 43.6486 44.4678 43.3332C44.9458 43.013 45.3858 42.6393 45.779 42.2192C46.1761 41.8035 46.5331 41.3511 46.8452 40.8682C47.0043 40.6248 47.146 40.3733 47.2796 40.1171C47.3465 39.9882 47.4085 39.8593 47.469 39.7288C47.5295 39.5984 47.5613 39.4933 47.6042 39.3549C47.7713 38.8059 47.9018 38.2171 48.0244 37.6315C48.1469 37.0459 48.2535 36.4523 48.3538 35.8588C48.5527 34.6716 48.7182 33.4718 48.8582 32.2783C48.9282 31.68 48.9908 31.08 49.046 30.4785C49.1049 29.8786 49.1526 29.2771 49.2051 28.6756C49.2894 27.4741 49.3499 26.2695 49.377 25.0649C49.444 22.6627 49.3377 20.2589 49.0587 17.8721C48.9159 16.688 48.6991 15.5139 48.4095 14.3569C48.2646 13.7824 48.0912 13.2143 47.8986 12.6605C47.7062 12.1066 47.4798 11.5651 47.2207 11.039C47.1539 10.9101 47.0934 10.7764 47.0218 10.6523L46.8086 10.272C46.6495 10.0285 46.5062 9.78026 46.3312 9.55112C46.0007 9.08895 45.6231 8.66232 45.2045 8.27806L44.8863 8.00276C44.7781 7.91524 44.6651 7.83249 44.5537 7.74656C44.4987 7.70303 44.4414 7.66265 44.3818 7.62562L44.2052 7.51105C44.0875 7.43091 43.9653 7.35759 43.8392 7.29145C43.3399 7.01425 42.8156 6.78462 42.2733 6.60559H42.2638C42.186 6.58039 42.1202 6.52742 42.079 6.4568C42.0378 6.38618 42.0241 6.30285 42.0404 6.22273C42.0567 6.14262 42.102 6.07133 42.1676 6.02248C42.2332 5.97363 42.3144 5.95065 42.3959 5.95792C43.0422 6.01 43.675 6.17143 44.2673 6.43532C44.5678 6.56397 44.8565 6.71893 45.1298 6.89839C45.2634 6.99228 45.4035 7.07821 45.5324 7.17846L45.9111 7.49673C46.3871 7.93144 46.814 8.41704 47.1841 8.94482C47.3751 9.20262 47.539 9.47632 47.7061 9.74048L47.9448 10.1558C48.0228 10.2943 48.088 10.4375 48.1596 10.5775C48.4363 11.1417 48.6776 11.7226 48.8821 12.3168C49.0889 12.9056 49.2672 13.5039 49.4152 14.1055C49.7129 15.3051 49.9351 16.5222 50.0803 17.7496C50.3595 20.1875 50.4626 22.6424 50.389 25.0951C50.3254 27.5404 50.1424 29.9762 49.84 32.4024C49.6883 33.615 49.508 34.8239 49.299 36.029C49.1924 36.6305 49.0778 37.2321 48.9489 37.8336C48.82 38.4351 48.6816 39.0303 48.489 39.6429C48.439 39.8056 48.379 39.965 48.3092 40.1203C48.2408 40.2651 48.1708 40.4083 48.096 40.5484C47.9485 40.8306 47.7894 41.1043 47.6186 41.3695C47.2717 41.9026 46.8748 42.4014 46.433 42.859C45.9893 43.322 45.4944 43.733 44.9579 44.0843C44.4147 44.4392 43.8259 44.7186 43.2074 44.9149C42.5897 45.1131 41.9465 45.2204 41.2979 45.2332C40.6549 45.2419 40.0133 45.1697 39.3883 45.0184C38.1614 44.7124 36.9986 44.1908 35.9542 43.478C34.9211 42.7732 33.982 41.9395 33.1599 40.9971C32.7494 40.5329 32.3643 40.0468 32.0062 39.5411C31.8263 39.2896 31.6529 39.0318 31.4874 38.7709C31.3219 38.5099 31.1691 38.2473 31.01 37.9577C30.9678 37.8805 30.958 37.7896 30.9828 37.7052C31.0075 37.6207 31.0648 37.5496 31.1421 37.5074C31.2193 37.4652 31.3102 37.4554 31.3946 37.4801C31.4791 37.5049 31.5502 37.5622 31.5924 37.6394L31.6036 37.6522Z" fill="white"/>
<path d="M46.2611 18.5754C45.7997 18.5734 45.3508 18.425 44.979 18.1516C44.6073 17.8783 44.3319 17.494 44.1924 17.0541L43.026 13.3782C42.8517 12.827 42.9033 12.2291 43.1694 11.7159C43.4355 11.2028 43.8945 10.8162 44.4454 10.6411L45.4941 10.3149C45.7669 10.2282 46.0541 10.1961 46.3394 10.2205C46.6246 10.245 46.9022 10.3254 47.1563 10.4572C47.4103 10.5891 47.6359 10.7698 47.8201 10.9889C48.0043 11.208 48.1434 11.4614 48.2296 11.7343L49.3912 15.4071C49.5651 15.9583 49.5133 16.5559 49.2472 17.069C48.9812 17.5821 48.5225 17.9687 47.9718 18.1442L46.9183 18.4767C46.7057 18.5434 46.484 18.5767 46.2611 18.5754ZM46.1545 11.0867C46.0205 11.0869 45.8874 11.1079 45.7599 11.1487L44.7064 11.4829C44.3786 11.5874 44.1056 11.8176 43.9472 12.1231C43.7888 12.4285 43.758 12.7843 43.8614 13.1124L45.0279 16.7868C45.0786 16.9497 45.161 17.1009 45.2704 17.2318C45.3798 17.3628 45.514 17.4707 45.6653 17.5496C45.8166 17.6284 45.982 17.6765 46.152 17.6912C46.322 17.7058 46.4932 17.6867 46.6558 17.6349L47.7092 17.3008C48.0373 17.1966 48.3105 16.9665 48.469 16.6609C48.6274 16.3553 48.6581 15.9994 48.5542 15.6713L47.3894 11.9969C47.3061 11.7344 47.1417 11.5052 46.9198 11.3421C46.6978 11.1791 46.4299 11.0908 46.1545 11.0899V11.0867Z" fill="white"/>
<path d="M14.6688 15.1796L8.26849 15.5201L14.621 16.3699C14.745 16.6723 14.9686 16.9233 15.2549 17.0811C15.5412 17.239 15.8728 17.2941 16.1948 17.2374C16.5167 17.1807 16.8096 17.0155 17.0247 16.7694C17.2398 16.5232 17.3642 16.2109 17.3773 15.8843C17.3904 15.5577 17.2914 15.2364 17.0967 14.9738C16.902 14.7112 16.6233 14.5232 16.3069 14.4409C15.9906 14.3586 15.6556 14.3869 15.3576 14.5213C15.0596 14.6557 14.8165 14.888 14.6688 15.1796Z" fill="white"/>
</svg>
