<?xml version="1.0" encoding="utf-8"?>
<!-- Generator: Adobe Illustrator 25.2.1, SVG Export Plug-In . SVG Version: 6.00 Build 0)  -->
<svg version="1.1" id="Layer_1" xmlns="http://www.w3.org/2000/svg" xmlns:xlink="http://www.w3.org/1999/xlink" x="0px" y="0px"
	 viewBox="0 0 400 400" style="enable-background:new 0 0 400 400;" xml:space="preserve">
<style type="text/css">
	.st0{fill:#FFFFFF;stroke:#FFFFFF;stroke-width:3;stroke-miterlimit:10;}
	.st1{fill:#FFFFFF;}
</style>
<g>
	<g>
		<g>
			<path class="st0" d="M-155.73,366.12h-128.55c-28.87,0-52.36-23.49-52.36-52.36V213.32c0-27.24,21.27-50.17,48.43-52.2
				c0.39-0.04,0.72,0.26,0.75,0.65c0.03,0.39-0.26,0.72-0.65,0.75c-26.43,1.97-47.13,24.29-47.13,50.8v100.44
				c0,28.1,22.86,50.95,50.95,50.95h128.55c28.1,0,50.95-22.86,50.95-50.95V213.32c0-26.51-20.7-48.82-47.13-50.8
				c-0.39-0.03-0.68-0.37-0.65-0.75c0.03-0.39,0.36-0.7,0.75-0.65c27.16,2.03,48.43,24.96,48.43,52.2v100.44
				C-103.37,342.63-126.86,366.12-155.73,366.12z"/>
		</g>
		<g>
			<path class="st1" d="M-278.32,117.92V88.67c0-24.1,19.54-43.64,43.64-43.64h29.34c24.1,0,43.64,19.54,43.64,43.64v72.99h5.95
				c1.31,0,2.6,0.06,3.88,0.16V88.4c0-30.94-25.08-56.02-56.02-56.02h-24.26c-30.94,0-56.02,25.08-56.02,56.02v29.68
				c1.28-0.1,2.58-0.16,3.88-0.16H-278.32z"/>
		</g>
		<g>
			<path class="st1" d="M-197.52,250.89c0-12.03-9.75-21.78-21.78-21.78s-21.78,9.75-21.78,21.78c0,6.33,2.72,12.01,7.03,15.99
				v16.33c0,8.15,6.61,14.75,14.75,14.75s14.75-6.61,14.75-14.75v-16.33C-200.23,262.9-197.52,257.22-197.52,250.89z"/>
		</g>
	</g>
	<g>
		<path class="st0" d="M-148.38,162.36h-137.1c-0.46,0-0.83-0.31-0.83-0.7s0.37-0.7,0.83-0.7h137.1c0.46,0,0.83,0.31,0.83,0.7
			S-147.92,162.36-148.38,162.36z"/>
	</g>
</g>
<g>
	<g>
		<path class="st0" d="M264.82,367.52H135.18c-29.11,0-52.8-23.69-52.8-52.8V213.43c0-27.47,21.45-50.59,48.83-52.64
			c0.39-0.04,0.73,0.26,0.76,0.65c0.03,0.39-0.26,0.73-0.65,0.76c-26.65,1.99-47.52,24.49-47.52,51.23v101.29
			c0,28.33,23.05,51.38,51.38,51.38h129.63c28.33,0,51.38-23.05,51.38-51.38V213.43c0-26.74-20.87-49.24-47.52-51.23
			c-0.39-0.03-0.68-0.37-0.65-0.76c0.03-0.39,0.37-0.7,0.76-0.65c27.38,2.05,48.83,25.17,48.83,52.64v101.29
			C317.61,343.84,293.93,367.52,264.82,367.52z"/>
	</g>
	<g>
		<path class="st1" d="M141.19,161.34v-73.6c0-24.31,19.7-44.01,44.01-44.01h29.59c24.31,0,44.01,19.7,44.01,44.01v73.6h6
			c1.32,0,2.62,0.07,3.92,0.16V87.47c0-31.2-25.29-56.49-56.49-56.49h-24.47c-31.2,0-56.49,25.29-56.49,56.49v74.04
			c1.29-0.1,2.6-0.16,3.92-0.16H141.19z"/>
	</g>
	<g>
		<path class="st1" d="M222.67,251.33c0-12.13-9.83-21.96-21.96-21.96s-21.96,9.83-21.96,21.96c0,6.38,2.74,12.11,7.09,16.12v16.47
			c0,8.22,6.66,14.88,14.88,14.88c8.22,0,14.88-6.66,14.88-14.88v-16.47C219.93,263.44,222.67,257.71,222.67,251.33z"/>
	</g>
	<g>
		<path class="st0" d="M258.81,162.05H141.19c-0.39,0-0.71-0.32-0.71-0.71s0.32-0.71,0.71-0.71h117.61c0.39,0,0.71,0.32,0.71,0.71
			S259.2,162.05,258.81,162.05z"/>
	</g>
</g>
</svg>
