<svg width="44" height="62" viewBox="0 0 44 62" fill="none" xmlns="http://www.w3.org/2000/svg">
<g clip-path="url(#clip0)">
<path d="M33.9694 61.7226H10.0306C4.65403 61.7226 0.279358 57.3781 0.279358 52.0387V33.4626C0.279358 28.4246 4.24059 24.1837 9.29874 23.8083C9.37137 23.8009 9.43283 23.8564 9.43842 23.9285C9.44401 24.0006 9.39 24.0617 9.31737 24.0672C4.39516 24.4316 0.540088 28.5596 0.540088 33.4626V52.0387C0.540088 57.2357 4.79743 61.4618 10.0288 61.4618H33.9694C39.2026 61.4618 43.4581 57.2339 43.4581 52.0387V33.4626C43.4581 28.5596 39.603 24.4334 34.6808 24.0672C34.6081 24.0617 34.5541 23.9988 34.5597 23.9285C34.5653 23.8564 34.6268 23.799 34.6994 23.8083C39.7576 24.1837 43.7188 28.4246 43.7188 33.4626V52.0387C43.7206 57.3781 39.346 61.7226 33.9694 61.7226Z" fill="white" stroke="white" stroke-width="3" stroke-miterlimit="10"/>
<path d="M11.1406 15.8204V10.4107C11.1406 5.95346 14.7796 2.33959 19.2679 2.33959H24.7321C29.2203 2.33959 32.8594 5.95346 32.8594 10.4107V23.91H33.9675C34.2115 23.91 34.4517 23.9211 34.6901 23.9396V10.3608C34.6919 4.63849 30.0212 0 24.259 0H19.741C13.9788 0 9.30804 4.63849 9.30804 10.3608V15.85C9.54643 15.8315 9.78853 15.8204 10.0306 15.8204H11.1406Z" fill="white"/>
<path d="M26.1866 40.4129C26.1866 38.188 24.3708 36.3848 22.1304 36.3848C19.89 36.3848 18.0742 38.188 18.0742 40.4129C18.0742 41.5836 18.5807 42.6341 19.3834 43.3702V46.3904C19.3834 47.8977 20.6144 49.1184 22.1304 49.1184C23.6463 49.1184 24.8773 47.8959 24.8773 46.3904V43.3702C25.6819 42.6341 26.1866 41.5818 26.1866 40.4129Z" fill="white"/>
<path d="M35.3382 24.0395H9.80527C9.7196 24.0395 9.6507 23.9821 9.6507 23.91C9.6507 23.8379 9.7196 23.7805 9.80527 23.7805H35.3382C35.4238 23.7805 35.4927 23.8379 35.4927 23.91C35.4927 23.9821 35.4238 24.0395 35.3382 24.0395Z" fill="white" stroke="white" stroke-width="3" stroke-miterlimit="10"/>
</g>
<defs>
<clipPath id="clip0">
<rect width="44" height="62" fill="white"/>
</clipPath>
</defs>
</svg>
