<svg width="10" height="23" viewBox="0 0 10 23" fill="none" xmlns="http://www.w3.org/2000/svg">
<path d="M1.69958 13.7253C1.69958 13.7253 3.73908 14.3314 4.90046 13.7253C1.44464 12.2964 0.0849791 9.78519 0.0849791 7.70692C0.0849791 4.41633 2.86096 1.94838 7.39318 4.11325C7.39318 4.11325 7.87473 1.5587 8.78117 0L9.57431 0.216487L8.61121 5.10908L7.7331 5.71525C3.54079 4.06995 1.44464 4.8926 1.44464 7.70692C1.44464 10.9975 6.17515 11.5604 6.17515 13.8118C6.17515 15.1974 4.24895 16.1066 1.47297 14.8943L1.69958 13.7253ZM0.93477 17.7952L1.81289 17.1457C5.83523 18.3581 8.10134 16.3231 8.10134 13.9417C8.10134 12.08 6.62837 9.95838 3.54079 9.09244L3.79573 7.92341C7.47816 8.70276 9.74427 11.0408 9.74427 13.8118C9.74427 18.055 6.3451 19.7869 2.1528 18.6178C2.1528 18.6178 1.81289 20.393 0.793138 22.7744L0 22.5579L0.93477 17.7952Z" fill="white"/>
</svg>
