<?xml version="1.0" encoding="UTF-8"?>
<svg width="220px" height="111px" viewBox="0 0 220 111" version="1.1" xmlns="http://www.w3.org/2000/svg" xmlns:xlink="http://www.w3.org/1999/xlink">
    <!-- Generator: Sketch 52.6 (67491) - http://www.bohemiancoding.com/sketch -->
    <title>Artboard</title>
    <desc>Created with Sketch.</desc>
    <defs>
        <rect id="path-1" x="0" y="0" width="296" height="213"></rect>
    </defs>
    <g id="Artboard" stroke="none" stroke-width="1" fill="none" fill-rule="evenodd">
        <g id="Clipped" transform="translate(-41.000000, -43.000000)">
            <mask id="mask-2" fill="white">
                <use xlink:href="#path-1"></use>
            </mask>
            <g id="Main-Logo--21"></g>
            <g id="Group" mask="url(#mask-2)">
                <g transform="translate(45.000000, 44.000000)">
                    <g transform="translate(0.015299, 0.147785)">
                        <path d="M8.57975721,64.4115529 C8.57975721,64.4115529 17.9373521,67.2237289 23.2659825,64.4115529 C7.41005785,57.7828522 1.17166126,46.1324086 1.17166126,36.4906621 C1.17166126,21.2245636 13.9083876,9.77498964 34.703043,19.8184755 C34.703043,19.8184755 36.9124751,7.96716218 41.0714061,0.735852339 L44.7104708,1.74020093 L40.2916066,24.438479 L36.2626421,27.2506551 C17.0275859,19.6176058 7.41005785,23.4341304 7.41005785,36.4906621 C7.41005785,51.7567607 29.1144793,54.368067 29.1144793,64.8132923 C29.1144793,71.2411233 20.2767508,75.4593873 7.54002445,69.8350353 L8.57975721,64.4115529 Z M5.07065913,83.2933063 L9.0996236,80.2802606 C27.5548802,85.9046127 37.9522078,76.4637359 37.9522078,65.4159015 C37.9522078,56.7785036 31.1939449,46.9358874 17.0275859,42.9184931 L18.1972853,37.4950107 C35.0929427,41.1106656 45.4902704,51.9576304 45.4902704,64.8132923 C45.4902704,84.4985246 29.8942789,92.5333134 10.6592227,87.109831 C10.6592227,87.109831 9.0996236,95.3454894 4.42082615,106.393324 L0.78176147,105.388975 L5.07065913,83.2933063 Z" id="Shape" fill="#FFFFFF" fill-rule="nonzero"></path>
                    </g>
                    <g transform="translate(56.195105, 51.226054)">
                        <path d="M18.3149718,26.22377 C18.3149718,28.973909 17.4752581,31.2141908 15.7658411,32.9446153 C14.0864138,34.6750399 11.9571399,35.5402522 9.37801947,35.5402522 C7.99848992,35.5402522 6.4690115,35.2698733 4.84956377,34.7291157 C3.23011604,34.188358 1.88057626,33.4699228 0.83093421,32.5738101 L0.770954664,31.2759917 C0.770954664,28.7112553 0.980883074,26.2701206 1.37075012,23.9525877 L3.94987059,23.9525877 L5.71926718,30.4416798 C7.21875582,31.3377925 8.95816265,31.7858489 10.8775081,31.7858489 C12.2270479,30.9824375 12.8568331,29.6846191 12.8568331,27.8923936 C12.8568331,26.2546704 12.1070888,24.8796009 10.5176308,23.7671851 L5.11947173,20.2445351 C2.27044331,18.1433053 0.860923983,15.5013178 0.860923983,12.3185726 C0.860923983,9.63023445 1.7306274,7.43630332 3.44004445,5.7367792 C5.17945127,4.03725508 7.39869446,3.18749302 10.097774,3.18749302 C12.4969558,3.18749302 14.8661479,3.74370091 17.23534,4.8561167 C17.23534,8.13156319 17.0254115,10.9589533 16.6055547,13.3382871 L13.7265365,13.3382871 L12.7068843,8.1470134 C11.2973649,7.22000025 9.61793765,6.78739411 7.69859219,6.84919499 C6.5889706,7.7453077 6.01916491,8.99677546 6.01916491,10.6035983 C6.01916491,11.5306114 6.34905241,12.3726484 6.97883764,13.1297091 C7.60862287,13.8867699 8.92817288,14.8369583 10.8775081,15.9802746 C12.8268433,17.1235908 14.2663524,18.1046797 15.1960354,18.9235413 C16.1257184,19.742403 16.8754627,20.7466672 17.4452684,21.9363341 C18.015074,23.126001 18.3149718,24.5551463 18.3149718,26.22377 Z" id="Path" fill="#FFFFFF"></path>
                        <path d="M28.0916377,30.1172252 C28.7514127,30.1172252 29.771065,29.9163724 31.1206048,29.5146667 L31.5104718,31.7858489 L25.9623638,35.3548495 C24.9427116,35.4166504 23.9530491,34.9685941 23.0233661,34.0106805 C22.0936832,33.0527669 21.6138468,31.9712515 21.583857,30.7661344 L21.583857,17.3707943 L19.0647161,17.417145 L18.9147672,15.0069108 C19.8444502,14.1725989 20.8041229,13.4309884 21.8237752,12.7820792 L23.6231616,6.75649367 L26.0823229,6.75649367 L26.6821184,12.7820792 L31.6304309,12.7820792 L31.6904105,14.7751575 L29.9210139,17.4634956 L26.8020775,17.4634956 L26.8020775,27.985095 C26.8020775,28.7885064 26.8920468,29.3447142 27.1019752,29.6537186 C27.2819139,29.962723 27.6118014,30.1172252 28.0916377,30.1172252 Z" id="Path" fill="#FFFFFF"></path>
                        <path d="M51.2737321,32.3884074 L46.8652355,35.3548495 C46.2954298,35.3239491 45.6956344,34.9917694 45.0958389,34.3583104 C44.4660537,33.7248514 43.9562276,32.9446153 43.5963503,32.0176022 L39.6976798,35.2157976 L38.5580684,35.3084989 C37.0585798,35.3084989 35.7990093,34.7368408 34.8393366,33.5935245 C33.8496741,32.4502083 33.339848,31.0751388 33.339848,29.468316 C33.339848,27.2434844 34.2995207,25.4821594 36.1588866,24.184341 L43.0265446,23.9525877 L43.0265446,19.8273792 C43.0265446,17.3553441 42.4567389,15.7794217 41.3471173,15.0996121 C40.2374957,15.1923134 39.3378025,15.3931662 38.6480378,15.7021706 L37.9882628,20.7080417 L34.9592957,20.8470936 C34.4494696,19.1475695 34.1795616,17.278093 34.1795616,15.2386641 L34.2095514,14.3116509 C35.5291014,13.5700404 37.1185593,12.9134061 38.9779253,12.3417479 C40.8073014,11.7700898 42.2168207,11.4842608 43.1764935,11.4842608 C44.0761866,11.4842608 44.9458901,11.7932652 45.7856037,12.4112739 C46.6253173,13.0292827 47.3150821,13.8326941 47.854898,14.8215081 C48.124806,15.4086165 48.2447651,16.5828331 48.2747548,18.3441581 L48.2747548,29.468316 C48.2747548,30.2099265 48.5746526,30.5807318 49.174448,30.5807318 L50.9438446,30.3026278 L51.2737321,32.3884074 Z M39.3378025,31.1832903 C40.2974753,31.1523899 41.527056,30.7661344 43.0265446,30.0245239 L43.0265446,26.6872765 L42.1268514,26.6409259 C39.7576594,26.6409259 38.5580684,27.4752377 38.5580684,29.1438614 C38.5580684,29.9781732 38.8279764,30.6579829 39.3378025,31.1832903 Z" id="Shape" fill="#FFFFFF" fill-rule="nonzero"></path>
                        <path d="M62.5798765,11.994118 L63.8694367,11.855066 C65.818772,11.855066 67.4082299,12.8825056 68.6678004,14.9373848 C69.8973811,16.9922639 70.5271663,19.5647254 70.5271663,22.6547693 C70.5271663,26.3937224 69.5974833,29.468316 67.7081276,31.8785502 C65.8487617,34.2887844 63.4195901,35.4939015 60.4506026,35.4939015 C58.2613492,35.4939015 55.8921571,34.8604425 53.3430265,33.5935245 L53.3430265,4.71706473 L50.7039264,4.34625946 L50.4340185,2.12142789 C52.4433333,1.13261385 54.5726071,0.59185618 56.8518299,0.499154864 L56.8518299,0.545505522 L58.5912367,2.58493447 L58.5912367,15.5631187 L62.5798765,11.994118 Z M62.6098663,31.5077449 C63.3596106,30.735234 63.9893958,29.6537186 64.4392424,28.2631989 C64.8590992,26.8726792 65.0990174,25.4203586 65.0990174,23.9062371 C65.0990174,21.9595094 64.7391401,20.2986109 64.0193856,18.9235413 C63.3296208,17.5484718 62.3999378,16.8609371 61.2303367,16.8609371 C60.4805924,16.8609371 59.610889,17.2162921 58.5912367,17.9270022 L58.5912367,30.8124851 C59.4309503,31.3377925 60.4206128,31.6004463 61.5002447,31.6004463 L62.6098663,31.5077449 Z" id="Shape" fill="#FFFFFF" fill-rule="nonzero"></path>
                        <path d="M78.7743538,30.9515371 C79.8839754,31.4150436 80.7836686,31.8785502 81.3834641,32.3420568 L81.2335152,34.613239 L70.9170333,34.613239 L70.827064,33.0373167 C71.5468186,32.5120092 72.4465118,32.002152 73.5561333,31.5077449 L73.5561333,4.71706473 L70.8570538,4.34625946 L70.5871458,2.12142789 C72.6564402,1.10171342 74.785714,0.560955741 77.0049572,0.499154864 L78.7743538,2.53858381 L78.7743538,30.9515371 Z" id="Path" fill="#FFFFFF"></path>
                        <path d="M96.048463,23.5817825 L86.8715925,23.4427305 C86.9615618,25.7293629 87.5013777,27.5061382 88.52103,28.7730561 C89.5406823,30.0399741 90.8002527,30.6734331 92.3597209,30.6734331 C93.6792709,30.6734331 95.2087493,30.1172252 96.9781459,29.0048094 L97.7278903,31.4613943 L92.089813,35.2157976 L90.9202118,35.3084989 C88.2811118,35.3084989 86.1218482,34.2347086 84.4124311,32.0871282 C82.7030141,29.9395477 81.8633004,27.212584 81.8633004,23.9062371 C81.8633004,20.4453879 82.7330038,17.5330216 84.4424209,15.1691381 C86.1818277,12.8052545 88.2811118,11.6233127 90.7402732,11.6233127 C92.8995368,11.6233127 94.6689334,12.4807999 96.048463,14.1957742 C97.4279925,15.9107486 98.1177573,18.1433053 98.1177573,20.8934443 L96.048463,23.5817825 Z M89.4807027,15.1459627 C88.251122,16.0729759 87.4413982,17.7725 87.0815209,20.2445351 L93.3193936,19.8273792 C93.139455,18.4986603 92.6896084,17.3862445 91.9998436,16.4901318 C91.2800891,15.5940191 90.4403755,15.1459627 89.4807027,15.1459627 Z" id="Shape" fill="#FFFFFF" fill-rule="nonzero"></path>
                        <path d="M106.334955,23.6281331 L106.334955,31.4613943 L110.653482,32.2493555 L110.623493,34.613239 L98.1777368,34.613239 L97.9378187,33.130018 C98.687563,32.5429096 99.6772255,31.9249009 100.846827,31.2759917 L100.846827,6.89554564 L98.2077266,6.47838972 L98.2377164,4.11450617 L109.843758,3.74370091 C112.632807,3.74370091 114.88204,4.6938894 116.591457,6.59426637 C118.330864,8.49464334 119.170578,10.8971524 119.170578,13.8017937 C119.170578,16.5519327 118.360854,18.8540154 116.741406,20.7080417 C115.091969,22.562068 112.992685,23.5199816 110.443554,23.5817825 L106.334955,23.6281331 Z M106.334955,8.05431209 L106.334955,19.5029246 C107.294628,19.7501281 108.224311,19.8737298 109.094014,19.8737298 C110.563513,19.8737298 111.673135,19.2788964 112.422879,18.0892295 C113.172623,16.8995626 113.532501,15.4395169 113.532501,13.7090923 C113.532501,12.3803735 113.322572,11.1134555 112.962695,9.9083384 C112.572828,8.7032213 112.033012,7.85345924 111.343247,7.35905222 L106.334955,8.05431209 Z" id="Shape" fill="#FFFFFF" fill-rule="nonzero"></path>
                        <path d="M137.164442,32.3884074 L132.785935,35.3548495 C132.216129,35.3239491 131.616334,34.9917694 130.986548,34.3583104 C130.356763,33.7248514 129.876927,32.9446153 129.517049,32.0176022 L125.588389,35.2157976 L124.478768,35.3084989 C122.949289,35.3084989 121.719709,34.7368408 120.730046,33.5935245 C119.740384,32.4502083 119.260547,31.0751388 119.260547,29.468316 C119.260547,27.2434844 120.19023,25.4821594 122.049596,24.184341 L128.947244,23.9525877 L128.947244,19.8273792 C128.947244,17.3553441 128.377438,15.7794217 127.237827,15.0996121 C126.128205,15.1923134 125.228512,15.3931662 124.538747,15.7021706 L123.908962,20.7080417 L120.879995,20.8470936 C120.340179,19.1475695 120.070271,17.278093 120.070271,15.2386641 L120.100261,14.3116509 C121.449801,13.5700404 123.009269,12.9134061 124.868635,12.3417479 C126.698011,11.7700898 128.10753,11.4842608 129.067203,11.4842608 C129.966896,11.4842608 130.836599,11.7932652 131.676313,12.4112739 C132.546017,13.0292827 133.235781,13.8326941 133.745607,14.8215081 C134.015515,15.4086165 134.165464,16.5828331 134.195454,18.3441581 L134.195454,29.468316 C134.195454,30.2099265 134.495352,30.5807318 135.095147,30.5807318 L136.834554,30.3026278 L137.164442,32.3884074 Z M125.228512,31.1832903 C126.188185,31.1523899 127.417765,30.7661344 128.947244,30.0245239 L128.947244,26.6872765 L128.047551,26.6409259 C125.648369,26.6409259 124.478768,27.4752377 124.478768,29.1438614 C124.478768,29.9781732 124.718686,30.6579829 125.228512,31.1832903 Z" id="Shape" fill="#FFFFFF" fill-rule="nonzero"></path>
                        <path d="M156.177958,14.6361055 C155.518183,15.1305125 154.858408,15.5322182 154.168643,15.8412226 C152.729134,22.423016 151.469563,27.5370386 150.419921,31.1832903 C149.460248,34.1497324 148.230668,36.7453693 146.701189,38.9702009 C145.201701,41.1950324 143.252365,43.1726605 140.883173,44.9030851 L138.094124,38.8311489 C141.27304,37.6878327 143.702212,36.2046116 145.411629,34.3814857 C144.421967,34.0724813 143.522273,33.5626241 142.71255,32.851914 L138.064135,16.3510798 L135.634963,15.0069108 L135.634963,12.5966766 L145.201701,12.5966766 L145.32166,14.6361055 L143.432304,15.8412226 L145.471609,24.6941982 L145.921455,28.7267055 L146.58123,28.7267055 C147.600882,24.4933454 148.350627,20.2290849 148.860453,15.9339239 L147.001087,15.0069108 L147.031077,12.5966766 L156.057998,12.5966766 L156.177958,14.6361055 Z" id="Path" fill="#FFFFFF"></path>
                    </g>
                </g>
            </g>
        </g>
    </g>
</svg>