<svg width="24" height="54" viewBox="0 0 24 54" fill="none" xmlns="http://www.w3.org/2000/svg">
<path d="M4.02985 32.5437C4.02985 32.5437 8.86567 33.981 11.6194 32.5437C3.42537 29.1559 0.201493 23.2015 0.201493 18.2738C0.201493 10.4715 6.78358 4.61977 17.5299 9.75285C17.5299 9.75285 18.6716 3.69582 20.8209 0L22.7015 0.513308L20.4179 12.1141L18.3358 13.5513C8.39552 9.65019 3.42537 11.6008 3.42537 18.2738C3.42537 26.076 14.6418 27.4106 14.6418 32.7491C14.6418 36.0342 10.0746 38.1901 3.49254 35.3156L4.02985 32.5437ZM2.21642 42.1939L4.29851 40.654C13.8358 43.5285 19.209 38.7034 19.209 33.057C19.209 28.6426 15.7164 23.6122 8.39552 21.5589L9 18.7871C17.7313 20.635 23.1045 26.1787 23.1045 32.7491C23.1045 42.8099 15.0448 46.9164 5.10448 44.1445C5.10448 44.1445 4.29851 48.3536 1.8806 54L0 53.4867L2.21642 42.1939Z" fill="white"/>
</svg>
