<svg width="832" height="450" viewBox="0 0 832 450" fill="none" xmlns="http://www.w3.org/2000/svg">
<g clip-path="url(#clip0)">
<path d="M269.43 351.974C268.911 351.879 268.262 351.758 260.724 338.833C256.804 332.111 251.534 322.788 245.043 311.099C234.001 291.21 223.114 271.113 223.011 270.914L180.736 193.371L190.169 188.697L229.899 264.279L271.732 341.027L271.801 341.148L271.81 341.287C271.94 342.721 272.493 349.978 270.711 351.594C270.356 351.914 269.923 352.043 269.465 351.974C269.465 351.983 269.447 351.983 269.43 351.974ZM228.696 264.936L189.581 190.537L182.623 193.984L224.213 270.275C224.317 270.474 234.918 290.052 245.813 309.673C264.35 343.075 268.798 349.762 269.75 350.626C269.759 350.618 269.776 350.609 269.793 350.592C270.719 349.754 270.737 344.863 270.46 341.563L228.696 264.936Z" fill="white"/>
<path d="M160.902 190.796C150.595 182.26 140.703 169.058 133.053 153.601C125.403 138.145 120.895 122.282 120.367 108.924C119.83 95.3769 123.448 85.9767 130.57 82.4689C137.692 78.9524 147.367 81.7863 157.821 90.4435C168.128 98.9798 178.019 112.182 185.669 127.638C193.319 143.095 197.828 158.958 198.356 172.315C198.892 185.863 195.275 195.263 188.153 198.771C185.349 200.153 182.156 200.551 178.668 200.006C173.294 199.151 167.236 196.049 160.902 190.796ZM131.176 83.7044C124.573 86.9616 121.215 95.9039 121.734 108.881C122.262 122.048 126.719 137.721 134.282 153.005L133.668 153.308L134.282 153.005C141.846 168.289 151.616 181.336 161.776 189.751C171.788 198.037 180.935 200.81 187.538 197.553C194.141 194.295 197.499 185.353 196.98 172.376C196.452 159.209 191.995 143.536 184.431 128.252C176.868 112.968 167.098 99.9215 156.938 91.5062C150.785 86.4173 144.961 83.402 139.855 82.5985C136.653 82.0801 133.728 82.4429 131.176 83.7044Z" fill="white"/>
<path d="M124.417 89.9943C113.573 96.6816 103.431 104.371 92.9772 111.637C82.7051 118.774 71.8618 125.038 61.3819 131.863C51.3607 138.395 41.5645 145.316 32.5472 153.195C23.5558 161.049 15.326 169.896 8.80963 179.927C5.21827 185.457 2.12884 191.548 1.24614 198.149C0.519215 203.566 1.47114 209.346 4.48269 213.969C7.80578 219.083 13.3529 221.684 19.3587 221.961C25.901 222.263 32.1405 220.043 38.0857 217.554C43.8838 215.135 49.5867 212.707 55.7136 211.204C61.6762 209.744 67.7858 208.957 73.9041 208.612C86.2878 207.921 98.6801 208.983 111.021 209.951C122.496 210.85 134.04 211.731 145.558 211.169C156.583 210.625 167.729 208.672 177.647 203.627C180.122 202.365 182.502 200.914 184.76 199.289C185.072 199.065 185.418 199.54 185.106 199.765C176.037 206.262 165.254 209.623 154.264 211.005C142.936 212.431 131.461 211.964 120.098 211.195C107.403 210.34 94.7253 208.957 81.9955 208.966C69.3002 208.975 56.6742 210.556 44.8444 215.342C38.8732 217.753 33.0232 220.682 26.6626 221.935C20.8299 223.084 14.3914 222.807 9.25963 219.541C4.88942 216.759 2.17211 212.059 1.0471 207.091C-0.25098 201.354 0.700946 195.436 2.81249 190.01C5.14904 184.04 8.76636 178.597 12.6 173.491C16.2087 168.687 20.1981 164.168 24.4558 159.926C32.9799 151.416 42.5251 143.985 52.4252 137.142C62.706 130.032 73.4714 123.716 83.9772 116.951C94.7513 110.004 104.885 102.142 115.521 95.0055C118.342 93.1133 121.198 91.273 124.088 89.4932C124.391 89.3204 124.737 89.7956 124.417 89.9943Z" fill="white" stroke="white" stroke-miterlimit="10"/>
<path d="M203.364 215.263L195.586 219.148L196.201 220.377L203.979 216.492L203.364 215.263Z" fill="white"/>
</g>
<g clip-path="url(#clip1)">
<path d="M162.432 359.257C151.977 347.227 140.174 337.664 129.178 332.33C118.13 326.967 109.205 326.509 104.024 331.048L103.982 331.078C103.405 331.591 102.881 332.162 102.42 332.782C94.4067 343.483 103.546 369.671 123.991 393.211C134.438 405.236 146.244 414.8 157.245 420.139C161.073 421.996 164.643 423.266 167.898 423.935C171.236 424.629 174.237 424.7 176.824 424.144C177.643 423.967 178.444 423.715 179.216 423.39L179.23 423.385C180.385 422.911 181.454 422.247 182.392 421.42C182.422 421.401 182.449 421.378 182.472 421.353C193.013 411.961 184.042 384.127 162.432 359.257ZM182.042 420.91L182.029 420.914C181.113 421.721 180.069 422.368 178.941 422.83L178.926 422.835C167.137 427.707 143.96 415.237 124.462 392.795C103.057 368.155 94.0581 340.68 104.401 331.547C107.717 328.624 112.605 327.929 118.431 329.139C130.813 331.724 147.412 342.912 161.967 359.668C183.362 384.297 192.365 411.763 182.041 420.904L182.042 420.91Z" fill="white"/>
<path d="M152.454 433.495C139.881 430.888 123.149 419.648 108.532 402.812C86.9001 377.916 77.925 350.046 88.5238 340.681C89.4859 339.838 90.5775 339.158 91.7566 338.667L104.024 331.046C104.094 331.009 104.175 331 104.252 331.021C104.329 331.042 104.395 331.092 104.437 331.16C104.479 331.229 104.494 331.31 104.478 331.389C104.462 331.467 104.418 331.537 104.353 331.583L88.9154 341.173C78.6042 350.325 87.6057 377.779 108.998 402.4C130.39 427.02 156.206 439.643 166.552 430.53C166.568 430.515 166.586 430.501 166.604 430.49L182.061 420.886C182.096 420.861 182.135 420.844 182.177 420.835C182.219 420.827 182.262 420.827 182.303 420.836C182.345 420.844 182.385 420.862 182.42 420.886C182.455 420.911 182.485 420.943 182.507 420.98C182.53 421.016 182.544 421.057 182.551 421.1C182.557 421.142 182.555 421.186 182.544 421.227C182.533 421.269 182.513 421.307 182.487 421.341C182.461 421.374 182.428 421.402 182.39 421.422L166.953 431.013C163.531 434.026 158.464 434.744 152.454 433.495Z" fill="white"/>
<path d="M127.224 373.238C127.044 373.035 126.929 372.781 126.895 372.511C126.861 372.24 126.91 371.967 127.035 371.727L132.444 359.932C132.542 359.743 132.685 359.581 132.859 359.461C133.033 359.34 133.234 359.263 133.444 359.238C133.654 359.212 133.868 359.238 134.067 359.314C134.266 359.389 134.444 359.512 134.587 359.671L140.978 366.689L137.885 376.81C137.823 377.012 137.814 377.227 137.859 377.435C137.905 377.642 138.002 377.835 138.143 377.993L146.617 387.545L141.979 388.767C141.744 388.828 141.496 388.823 141.263 388.752C141.03 388.681 140.82 388.546 140.657 388.362L127.224 373.238Z" fill="white"/>
<path d="M143.618 366.056L144.689 362.55C144.752 362.344 144.869 362.159 145.026 362.013C145.183 361.867 145.377 361.767 145.586 361.721C145.795 361.676 146.013 361.687 146.217 361.754C146.422 361.821 146.605 361.941 146.75 362.102L153.404 369.533L151.825 375.224L143.618 366.056Z" fill="white"/>
<path d="M140.522 376.179L143.618 366.056L151.822 375.225L150.644 379.489C150.555 379.808 150.549 380.145 150.625 380.468C150.701 380.792 150.857 381.092 151.078 381.339L154.016 384.622C154.198 384.828 154.421 384.993 154.671 385.105C154.92 385.218 155.19 385.276 155.463 385.275L149.248 386.915L140.781 377.362C140.64 377.203 140.543 377.011 140.497 376.803C140.452 376.596 140.46 376.381 140.522 376.179Z" fill="white"/>
<path d="M156.688 365.194C156.755 364.952 156.884 364.733 157.064 364.56C157.243 364.387 157.465 364.266 157.707 364.21C157.949 364.153 158.202 364.164 158.44 364.239C158.678 364.315 158.892 364.454 159.06 364.64L163.339 369.422C163.505 369.607 163.62 369.833 163.671 370.077C163.723 370.321 163.709 370.573 163.632 370.809L161.982 375.86L155.683 368.82L156.688 365.194Z" fill="white"/>
<path d="M154.023 374.74L155.682 368.825L161.981 375.865L160.196 381.326L154.023 374.74Z" fill="white"/>
<path d="M159.579 383.232C159.436 383.686 159.13 384.07 158.721 384.308C158.712 384.314 158.701 384.318 158.69 384.319L157.761 384.566L157.731 384.577C157.461 384.575 157.195 384.516 156.948 384.403C156.702 384.291 156.482 384.127 156.302 383.923L153.173 380.435C153.008 380.25 152.891 380.026 152.835 379.785C152.778 379.543 152.783 379.291 152.849 379.052L154.045 374.741C154.051 374.719 154.062 374.7 154.078 374.684C154.094 374.669 154.114 374.658 154.136 374.653C154.158 374.648 154.18 374.649 154.202 374.655C154.223 374.662 154.242 374.675 154.257 374.692L160.152 381.284C160.167 381.301 160.177 381.321 160.182 381.343C160.186 381.364 160.185 381.387 160.179 381.408L159.579 383.232Z" fill="white"/>
</g>
<g clip-path="url(#clip2)">
<path d="M714.742 70.8822C714.672 54.9189 711.942 39.925 707.041 28.6493C702.119 17.3193 695.587 11.0842 688.626 11.0862L688.574 11.0816C687.794 11.0866 687.016 11.1714 686.254 11.3346C673.06 14.1102 662.784 39.8738 662.912 71.1017C662.979 87.0562 665.711 102.052 670.614 113.335C672.319 117.26 674.215 120.572 676.266 123.224C678.365 125.949 680.615 127.983 682.963 129.271C683.707 129.679 684.486 130.017 685.292 130.282L685.306 130.287C686.503 130.692 687.759 130.897 689.024 130.893C689.059 130.898 689.094 130.899 689.129 130.895C703.395 130.774 714.885 103.881 714.742 70.8822ZM689.092 130.278L689.079 130.272C687.845 130.275 686.619 130.075 685.451 129.678L685.436 129.672C673.196 125.564 663.674 100.875 663.547 71.0993C663.409 38.4084 674.642 11.7679 688.585 11.7106C693.053 11.6961 697.254 14.3978 700.917 19.154C708.692 29.2727 714.022 48.6551 714.115 70.8845C714.253 103.56 703.029 130.196 689.094 130.272L689.092 130.278Z" fill="white"/>
<path d="M658.135 120.238C650.227 109.977 644.83 90.4666 644.742 68.1358C644.6 35.1024 656.111 8.18022 670.403 8.11702C671.696 8.11658 672.981 8.32445 674.207 8.73264L688.627 11.0849C688.705 11.1028 688.774 11.1498 688.818 11.2164C688.863 11.283 688.881 11.3641 688.868 11.4433C688.855 11.5225 688.812 11.5937 688.749 11.6426C688.685 11.6914 688.605 11.7141 688.525 11.706L670.379 8.74622C656.447 8.83867 645.23 35.4653 645.371 68.1327C645.512 100.8 656.953 127.345 670.886 127.305C670.908 127.304 670.93 127.306 670.952 127.309L689.122 130.272C689.165 130.276 689.207 130.289 689.244 130.31C689.282 130.331 689.315 130.36 689.341 130.394C689.367 130.428 689.386 130.467 689.397 130.509C689.407 130.551 689.409 130.594 689.402 130.637C689.395 130.679 689.379 130.72 689.356 130.756C689.333 130.792 689.302 130.823 689.267 130.848C689.231 130.872 689.191 130.888 689.148 130.896C689.106 130.904 689.063 130.903 689.021 130.893L670.874 127.933C666.267 127.946 661.913 125.144 658.135 120.238Z" fill="white"/>
<path d="M681.752 59.0323C684.091 58.4524 686.47 58.048 688.869 57.8223C693.715 57.3736 697.269 58.1769 699.754 60.0977C702.277 62.013 703.918 64.9124 704.308 69.1352C704.703 73.3988 703.708 77.0099 701.49 79.6394C699.274 82.3087 695.364 84.0003 690.288 84.4714C688.243 84.6717 686.189 84.7567 684.136 84.726L681.752 59.0323ZM687.265 81.8268C688.132 81.9029 689.377 81.8268 690.694 81.7043C697.905 81.0351 701.445 76.6415 700.791 69.5864C700.257 63.4201 696.405 59.8297 689.272 60.4906C687.528 60.6524 686.225 60.9301 685.351 61.206L687.265 81.8268Z" fill="white"/>
<path d="M708.787 65.8931L676.98 68.8413L677.217 71.4003L709.024 68.4521L708.787 65.8931Z" fill="white"/>
<path d="M709.262 71.0115L677.456 73.9597L677.693 76.5187L709.5 73.5705L709.262 71.0115Z" fill="white"/>
</g>
<g clip-path="url(#clip3)">
<path d="M466.833 339.198C460.63 328.475 453.009 319.43 445.36 313.727C437.676 307.995 430.873 306.315 426.187 309.001L426.15 309.018C425.626 309.322 425.135 309.679 424.685 310.083C416.87 317.04 419.885 338.353 432.013 359.333C438.211 370.052 445.834 379.097 453.486 384.804C456.148 386.79 458.702 388.29 461.106 389.284C463.57 390.31 465.87 390.812 467.948 390.774C468.606 390.762 469.261 390.689 469.906 390.557L469.917 390.555C470.88 390.366 471.805 390.019 472.655 389.529C472.68 389.519 472.704 389.506 472.727 389.49C482.287 383.907 479.654 361.365 466.833 339.198ZM472.464 389.088L472.453 389.09C471.623 389.568 470.72 389.905 469.78 390.089L469.768 390.091C459.941 392.044 444.008 379.09 432.44 359.087C419.741 337.125 417.032 314.853 426.4 309.437C429.403 307.705 433.274 307.904 437.575 309.694C446.713 313.51 457.777 324.508 466.411 339.442C479.104 361.393 481.818 383.659 472.463 389.084L472.464 389.088Z" fill="white"/>
<path d="M447.744 394.265C438.462 390.405 427.304 379.347 418.633 364.343C405.799 342.152 403.169 319.583 412.77 314.029C413.64 313.53 414.585 313.175 415.569 312.976L426.187 309C426.246 308.982 426.31 308.987 426.366 309.015C426.422 309.042 426.465 309.09 426.487 309.148C426.509 309.207 426.508 309.271 426.484 309.329C426.46 309.386 426.415 309.432 426.358 309.457L412.996 314.462C403.649 319.897 406.364 342.153 419.056 364.098C431.748 386.043 449.689 399.508 459.057 394.108C459.072 394.099 459.087 394.091 459.103 394.085L472.482 389.073C472.512 389.06 472.545 389.053 472.579 389.052C472.612 389.052 472.645 389.058 472.676 389.071C472.707 389.084 472.735 389.103 472.758 389.127C472.781 389.151 472.799 389.18 472.811 389.211C472.823 389.242 472.828 389.276 472.826 389.309C472.824 389.343 472.816 389.375 472.801 389.405C472.786 389.435 472.765 389.462 472.74 389.483C472.714 389.505 472.685 389.521 472.653 389.531L459.291 394.535C456.193 396.321 452.181 396.113 447.744 394.265Z" fill="white"/>
<path d="M440.046 343.941C441.398 342.648 442.844 341.458 444.373 340.381C447.463 338.21 450.166 337.381 452.581 337.716C455.018 338.033 457.241 339.353 459.132 342.046C461.043 344.765 461.765 347.58 461.285 350.207C460.822 352.859 458.842 355.505 455.605 357.78C454.305 358.704 452.955 359.553 451.56 360.324L440.046 343.941ZM452.549 357.165C453.162 356.882 453.972 356.351 454.811 355.76C459.409 352.529 460.099 348.205 456.938 343.706C454.201 339.759 450.221 338.827 445.673 342.023C444.561 342.804 443.791 343.493 443.308 344.016L452.549 357.165Z" fill="white"/>
<path d="M460.898 338.135L440.616 352.386L441.762 354.018L462.045 339.767L460.898 338.135Z" fill="white"/>
<path d="M463.192 341.399L442.91 355.65L444.056 357.282L464.339 343.031L463.192 341.399Z" fill="white"/>
</g>
<g clip-path="url(#clip4)">
<path d="M355.397 138.037C357.265 125.79 356.978 113.967 354.578 104.733C352.168 95.454 347.912 89.8876 342.575 89.0511L342.536 89.0412C341.937 88.9512 341.331 88.9225 340.726 88.9558C330.277 89.4951 319.297 108.009 315.636 131.965C313.767 144.204 314.055 156.03 316.455 165.269C317.29 168.484 318.345 171.251 319.598 173.531C320.879 175.873 322.359 177.703 324.004 178.973C324.525 179.375 325.082 179.728 325.668 180.029L325.678 180.034C326.547 180.489 327.485 180.797 328.455 180.946C328.481 180.954 328.508 180.959 328.536 180.961C339.487 182.585 351.533 163.351 355.397 138.037ZM328.582 180.483L328.572 180.477C327.626 180.331 326.71 180.029 325.862 179.585L325.851 179.579C316.963 174.956 312.636 154.882 316.123 132.039C319.953 106.961 331.772 87.8899 342.468 89.5247C345.895 90.0516 348.79 92.6285 351.026 96.7159C355.769 105.409 357.521 120.91 354.916 137.963C351.087 163.03 339.276 182.098 328.584 180.479L328.582 180.483Z" fill="white"/>
<path d="M306.058 169.059C301.231 160.241 299.442 144.633 302.063 127.503C305.932 102.162 317.998 82.9085 328.962 84.5808C329.954 84.7362 330.913 85.0502 331.804 85.5108L342.576 89.0502C342.634 89.0734 342.68 89.1176 342.707 89.1741C342.733 89.2305 342.737 89.2949 342.717 89.354C342.698 89.4131 342.657 89.4626 342.602 89.4924C342.547 89.5221 342.483 89.5299 342.423 89.5142L328.868 85.0602C318.176 83.4537 306.371 102.516 302.546 127.577C298.721 152.637 304.296 174.365 314.982 176.012C314.999 176.014 315.016 176.018 315.032 176.023L328.605 180.482C328.638 180.491 328.668 180.506 328.694 180.526C328.721 180.547 328.742 180.573 328.758 180.602C328.774 180.631 328.784 180.664 328.787 180.697C328.79 180.73 328.786 180.764 328.776 180.796C328.765 180.827 328.748 180.857 328.726 180.882C328.704 180.907 328.677 180.927 328.647 180.941C328.616 180.955 328.584 180.963 328.55 180.964C328.517 180.965 328.484 180.959 328.453 180.946L314.897 176.492C311.364 175.948 308.363 173.275 306.058 169.059Z" fill="white"/>
<path d="M331.532 124.98C333.395 124.817 335.267 124.794 337.134 124.91C340.903 125.149 343.531 126.193 345.205 127.965C346.908 129.737 347.817 132.157 347.608 135.441C347.397 138.757 346.2 141.406 344.182 143.155C342.163 144.934 338.962 145.761 335.013 145.51C333.422 145.418 331.837 145.236 330.266 144.965L331.532 124.98ZM333.014 143.119C333.67 143.282 334.633 143.373 335.658 143.438C341.266 143.793 344.509 140.851 344.857 135.364C345.191 130.572 342.669 127.356 337.122 127.004C335.765 126.918 334.733 126.974 334.029 127.08L333.014 143.119Z" fill="white"/>
<path d="M351.432 133.495L326.693 131.926L326.567 133.916L351.306 135.486L351.432 133.495Z" fill="white"/>
<path d="M351.18 137.476L326.441 135.907L326.315 137.897L351.054 139.467L351.18 137.476Z" fill="white"/>
</g>
<g clip-path="url(#clip5)">
<path d="M662.214 271.281C663.792 258.136 663.077 245.512 660.191 235.721C657.294 225.884 652.548 220.072 646.809 219.348L646.766 219.339C646.122 219.262 645.472 219.251 644.827 219.305C633.664 220.215 622.552 240.348 619.458 266.062C617.879 279.2 618.595 291.826 621.481 301.622C622.485 305.03 623.708 307.954 625.128 310.35C626.579 312.811 628.226 314.72 630.029 316.024C630.601 316.437 631.209 316.797 631.846 317.099L631.857 317.104C632.803 317.562 633.818 317.862 634.86 317.99C634.889 317.998 634.918 318.002 634.947 318.003C646.721 319.389 658.95 298.453 662.214 271.281ZM634.98 317.491L634.97 317.485C633.952 317.359 632.962 317.066 632.039 316.618L632.027 316.612C622.357 311.956 617.036 290.645 619.982 266.126C623.218 239.207 635.209 218.452 646.711 219.858C650.395 220.311 653.582 222.972 656.115 227.268C661.489 236.406 663.897 252.913 661.696 271.218C658.462 298.124 646.479 318.876 634.982 317.487L634.98 317.491Z" fill="white"/>
<path d="M610.485 306.003C605.017 296.735 602.566 280.116 604.781 261.728C608.049 234.527 620.298 213.569 632.089 215.006C633.154 215.141 634.192 215.445 635.162 215.909L646.809 219.347C646.872 219.37 646.924 219.416 646.954 219.475C646.984 219.535 646.99 219.604 646.971 219.667C646.952 219.731 646.91 219.785 646.852 219.819C646.795 219.852 646.727 219.863 646.662 219.848L632.004 215.521C620.508 214.146 608.532 234.891 605.301 261.791C602.069 288.691 608.782 311.729 620.274 313.148C620.292 313.15 620.311 313.153 620.328 313.159L635.006 317.49C635.04 317.498 635.073 317.513 635.102 317.534C635.131 317.555 635.155 317.582 635.173 317.613C635.191 317.644 635.203 317.678 635.207 317.713C635.212 317.749 635.209 317.785 635.199 317.819C635.189 317.853 635.172 317.885 635.149 317.913C635.126 317.94 635.098 317.962 635.066 317.978C635.034 317.994 634.999 318.004 634.963 318.006C634.927 318.008 634.892 318.003 634.858 317.99L620.2 313.664C616.4 313.195 613.097 310.435 610.485 306.003Z" fill="white"/>
<path d="M638.656 284.886C638.079 284.578 637.54 284.204 637.05 283.771C635.482 282.389 634.645 280.57 634.69 278.66L635.343 278.677C635.304 280.391 636.063 282.027 637.481 283.283C638.918 284.553 640.852 285.282 642.929 285.336C647.195 285.446 650.734 282.638 650.819 279.077C650.864 277.135 649.822 275.221 648.03 273.957C646.626 272.966 645.055 272.711 643.39 272.439C642.599 272.31 641.781 272.176 640.958 271.959C637.326 270.999 634.938 268.241 635.01 265.09C635.055 263.18 635.978 261.41 637.607 260.107C639.221 258.818 641.337 258.139 643.569 258.197C645.801 258.254 647.882 259.042 649.431 260.415C650.999 261.798 651.835 263.617 651.79 265.527L651.137 265.51C651.18 263.791 650.416 262.162 648.998 260.901C647.564 259.63 645.629 258.902 643.552 258.849C641.475 258.796 639.509 259.422 638.014 260.62C636.537 261.801 635.702 263.395 635.661 265.11C635.594 267.951 637.789 270.45 641.121 271.33C641.913 271.54 642.715 271.671 643.491 271.797C645.232 272.081 646.877 272.35 648.404 273.428C650.375 274.818 651.52 276.936 651.468 279.096C651.376 283.018 647.537 286.11 642.911 285.99C641.426 285.959 639.969 285.581 638.656 284.886Z" fill="white"/>
<path d="M634.287 279.815L633.819 279.358L635.001 278.152L636.258 279.407L635.797 279.869L635.007 279.08L634.287 279.815Z" fill="white"/>
<path d="M651.436 266.067L650.266 264.731L650.756 264.302L651.492 265.142L652.26 264.457L652.696 264.943L651.436 266.067Z" fill="white"/>
<path d="M644.05 261.632L643.397 261.615L642.908 282.422L643.561 282.439L644.05 261.632Z" fill="white"/>
</g>
<g clip-path="url(#clip6)">
<path d="M823.657 186.215C817.858 171.342 809.924 158.33 801.299 149.568C792.635 140.762 784.3 137.289 777.805 139.792L777.754 139.806C777.028 140.091 776.333 140.45 775.679 140.876C764.363 148.206 764.028 175.941 775.365 205.038C781.16 219.904 789.096 232.918 797.724 241.686C800.726 244.737 803.685 247.147 806.552 248.885C809.489 250.674 812.32 251.764 814.973 252.123C815.814 252.236 816.663 252.271 817.511 252.229H817.525C818.788 252.177 820.034 251.916 821.212 251.459C821.247 251.451 821.28 251.439 821.312 251.423C834.582 246.185 835.644 216.96 823.657 186.215ZM821.056 250.86H821.041C819.891 251.306 818.674 251.559 817.441 251.609H817.426C804.527 252.172 786.772 232.551 775.957 204.808C764.086 174.349 764.998 145.451 777.99 140.389C782.154 138.771 787.046 139.783 792.173 142.906C803.064 149.556 815.001 165.73 823.073 186.443C834.939 216.888 834.033 245.778 821.056 250.854V250.86Z" fill="white"/>
<path d="M788.558 252.611C777.492 245.876 765.446 229.606 757.343 208.798C745.344 178.02 746.415 148.76 759.731 143.567C760.938 143.102 762.211 142.835 763.502 142.775L777.805 139.79C777.884 139.779 777.965 139.798 778.031 139.844C778.096 139.89 778.142 139.96 778.158 140.038C778.175 140.117 778.16 140.199 778.118 140.267C778.077 140.335 778.01 140.385 777.933 140.407L759.934 144.163C746.965 149.254 746.063 178.132 757.929 208.569C769.795 239.005 790.008 259.668 802.997 254.626C803.017 254.618 803.038 254.611 803.06 254.606L821.081 250.844C821.123 250.833 821.166 250.83 821.209 250.836C821.252 250.842 821.293 250.857 821.329 250.879C821.366 250.902 821.398 250.932 821.423 250.967C821.447 251.002 821.465 251.042 821.473 251.084C821.482 251.126 821.482 251.17 821.473 251.212C821.465 251.254 821.448 251.294 821.423 251.329C821.398 251.365 821.366 251.394 821.33 251.417C821.293 251.439 821.252 251.454 821.21 251.46L803.211 255.217C798.916 256.884 793.846 255.833 788.558 252.611Z" fill="white"/>
<path d="M794.936 171.38C794.922 171.387 794.91 171.397 794.902 171.411C794.893 171.424 794.888 171.439 794.887 171.455C794.877 171.455 794.88 171.469 794.887 171.479L792.333 199.824C792.333 199.824 792.333 199.824 792.333 199.834C792.33 199.851 792.333 199.869 792.342 199.884C792.353 199.899 792.356 199.91 792.37 199.917C792.385 199.925 792.402 199.929 792.419 199.929C792.435 199.929 792.452 199.925 792.467 199.917L792.804 199.757L805.298 193.97L805.475 193.9L817.973 188.105L818.305 187.954C818.319 187.95 818.332 187.942 818.342 187.931C818.353 187.921 818.36 187.908 818.364 187.894V187.884C818.366 187.87 818.366 187.857 818.364 187.843C818.363 187.842 818.362 187.84 818.362 187.838C818.362 187.837 818.363 187.835 818.364 187.833C818.362 187.826 818.359 187.82 818.354 187.814C818.349 187.808 818.344 187.804 818.337 187.8V187.789L795.04 171.39L795.026 171.381C795.012 171.375 794.996 171.372 794.981 171.371C794.966 171.371 794.95 171.374 794.936 171.38ZM817.93 187.741L818.074 187.845L817.882 187.934L805.391 193.715L805.221 193.798L792.755 199.573L792.54 199.67L792.559 199.497L795.049 171.854V171.846L795.063 171.645L795.207 171.753L817.93 187.741Z" fill="white" stroke="white" stroke-miterlimit="10"/>
<path d="M818.29 187.773C818.272 187.774 818.255 187.777 818.239 187.783L817.905 187.927L805.409 193.724L805.231 193.803L792.736 199.591L792.401 199.749C792.379 199.756 792.368 199.759 792.356 199.781V199.788C792.347 199.802 792.34 199.817 792.345 199.827C792.341 199.844 792.344 199.862 792.353 199.877C792.365 199.892 792.368 199.903 792.382 199.91V199.92L792.396 199.929L815.666 216.316H815.673C815.686 216.327 815.702 216.333 815.718 216.333C815.734 216.333 815.75 216.327 815.763 216.316C815.782 216.31 815.799 216.297 815.81 216.279C815.821 216.261 815.825 216.24 815.822 216.22L818.365 187.91C818.366 187.906 818.367 187.901 818.367 187.897C818.367 187.893 818.366 187.888 818.365 187.884V187.877H818.357C818.359 187.863 818.359 187.85 818.357 187.837C818.356 187.835 818.355 187.833 818.355 187.831C818.355 187.83 818.356 187.828 818.357 187.826C818.355 187.819 818.352 187.813 818.347 187.807C818.342 187.801 818.337 187.797 818.33 187.793C818.318 187.784 818.304 187.777 818.29 187.773ZM815.662 215.848L815.647 216.048L815.495 215.942L792.784 199.961L792.64 199.858L792.841 199.765L805.313 193.984L805.492 193.905L817.974 188.12L818.166 188.031L818.153 188.212L815.662 215.848Z" fill="white" stroke="white" stroke-miterlimit="10"/>
<path d="M818.29 187.773L817.934 187.741L801.992 186.355H801.931C801.915 186.353 801.899 186.356 801.884 186.363C801.869 186.37 801.857 186.38 801.848 186.394L801.815 186.44L792.559 199.497L792.352 199.785V199.792C792.343 199.806 792.336 199.821 792.34 199.831C792.337 199.848 792.34 199.866 792.349 199.881C792.36 199.896 792.363 199.907 792.378 199.914C792.379 199.918 792.381 199.922 792.384 199.925C792.387 199.929 792.391 199.931 792.395 199.933C792.405 199.939 792.416 199.941 792.428 199.94L792.778 199.96L808.462 200.787H808.517C808.535 200.789 808.552 200.786 808.568 200.777C808.582 200.768 808.595 200.756 808.604 200.742L808.637 200.696L818.14 188.211L818.353 187.923V187.91C818.355 187.906 818.356 187.901 818.356 187.897C818.356 187.892 818.355 187.888 818.353 187.884V187.876C818.351 187.862 818.346 187.847 818.34 187.833C818.339 187.832 818.338 187.83 818.338 187.828C818.338 187.826 818.339 187.825 818.34 187.823C818.338 187.816 818.334 187.81 818.33 187.804C818.325 187.798 818.319 187.793 818.313 187.79C818.306 187.783 818.298 187.778 818.29 187.773ZM808.542 200.497L808.48 200.582H808.372L792.837 199.762H792.812L792.627 199.754L792.736 199.596L792.759 199.572L801.907 186.634L801.97 186.55H802.084L817.888 187.927H817.905L818.095 187.946L817.981 188.09L817.97 188.111L808.542 200.497Z" fill="white" stroke="white" stroke-miterlimit="10"/>
<path d="M815.765 216.325C815.777 216.32 815.788 216.312 815.797 216.303C815.806 216.293 815.813 216.282 815.817 216.27C815.822 216.257 815.824 216.244 815.823 216.231C815.823 216.218 815.82 216.206 815.814 216.194L795.071 171.429C795.066 171.417 795.059 171.405 795.049 171.396C795.04 171.386 795.028 171.379 795.016 171.374C795.003 171.369 794.99 171.366 794.976 171.367C794.963 171.367 794.95 171.37 794.937 171.376C794.925 171.382 794.914 171.39 794.905 171.4C794.896 171.41 794.889 171.422 794.885 171.434C794.881 171.447 794.879 171.461 794.88 171.474C794.881 171.488 794.885 171.501 794.891 171.513L815.634 216.277C815.646 216.301 815.666 216.319 815.69 216.328C815.715 216.337 815.742 216.336 815.765 216.325Z" fill="white" stroke="white" stroke-miterlimit="10"/>
</g>
<g clip-path="url(#clip7)">
<path d="M496.93 114.494C501.053 103.944 506.693 94.7126 512.824 88.4966C518.982 82.25 524.907 79.7864 529.524 81.5616L529.56 81.5718C530.076 81.774 530.571 82.0282 531.035 82.3307C539.079 87.5304 539.317 107.206 531.258 127.848C527.14 138.393 521.498 147.625 515.365 153.845C513.231 156.01 511.128 157.719 509.09 158.952C507.002 160.222 504.989 160.995 503.103 161.249C502.506 161.329 501.902 161.355 501.3 161.325H501.289C500.392 161.288 499.506 161.103 498.668 160.778C498.644 160.773 498.62 160.764 498.598 160.753C489.165 157.037 488.409 136.305 496.93 114.494ZM498.78 160.354H498.79C499.608 160.67 500.472 160.849 501.349 160.885H501.36C510.529 161.284 523.15 147.365 530.838 127.684C539.276 106.076 538.628 85.5765 529.392 81.9854C526.432 80.8374 522.955 81.5554 519.311 83.7708C511.569 88.4885 503.084 99.9624 497.346 114.656C488.911 136.253 489.555 156.748 498.78 160.349V160.354Z" fill="white"/>
<path d="M521.881 161.596C529.747 156.818 538.309 145.276 544.07 130.515C552.599 108.681 551.837 87.9237 542.372 84.2397C541.514 83.9099 540.609 83.7203 539.691 83.6779L529.525 81.5606C529.468 81.5525 529.411 81.5662 529.364 81.5989C529.317 81.6315 529.285 81.6808 529.273 81.7365C529.262 81.7922 529.272 81.8503 529.301 81.8988C529.331 81.9474 529.378 81.9827 529.433 81.9978L542.227 84.6625C551.446 88.274 552.088 108.761 543.653 130.352C535.218 151.944 520.85 166.602 511.617 163.026C511.602 163.019 511.587 163.014 511.572 163.011L498.761 160.342C498.732 160.334 498.701 160.332 498.671 160.337C498.64 160.341 498.611 160.351 498.585 160.367C498.559 160.383 498.537 160.404 498.519 160.429C498.501 160.454 498.489 160.483 498.483 160.513C498.477 160.543 498.477 160.573 498.483 160.603C498.489 160.633 498.501 160.662 498.519 160.687C498.536 160.712 498.559 160.733 498.585 160.749C498.611 160.765 498.64 160.775 498.67 160.78L511.464 163.444C514.518 164.627 518.121 163.881 521.881 161.596Z" fill="white"/>
<path d="M517.632 119.598C517.572 119.569 517.531 119.529 517.541 119.508C517.551 119.488 517.607 119.494 517.668 119.522C517.728 119.55 517.769 119.59 517.759 119.611C517.749 119.632 517.692 119.626 517.632 119.598Z" fill="white"/>
<path d="M517.35 119.436C517.377 119.38 517.532 119.396 517.696 119.474C517.861 119.551 517.972 119.659 517.945 119.716L517.987 119.736C518.018 119.672 517.891 119.548 517.704 119.461C517.516 119.373 517.341 119.358 517.311 119.418L517.351 119.437C517.351 119.437 517.351 119.436 517.35 119.436Z" fill="white"/>
<path d="M517.591 119.697C517.404 119.609 517.277 119.486 517.308 119.421L517.205 119.639L517.882 119.958L517.984 119.74C517.954 119.804 517.778 119.785 517.591 119.697Z" fill="white"/>
<path d="M517.821 119.772C517.74 119.765 517.66 119.743 517.587 119.707C517.511 119.674 517.442 119.627 517.382 119.569C517.295 119.563 517.228 119.583 517.204 119.632C517.163 119.719 517.282 119.86 517.469 119.948C517.657 120.036 517.841 120.037 517.879 119.948C517.908 119.902 517.882 119.837 517.821 119.772Z" fill="white"/>
<path d="M517.984 119.742L517.942 119.722C517.923 119.752 517.861 119.758 517.78 119.742C517.795 119.752 517.808 119.762 517.821 119.774C517.905 119.786 517.968 119.776 517.984 119.742Z" fill="white"/>
<path d="M517.348 119.441L517.308 119.421C517.29 119.458 517.323 119.512 517.386 119.568C517.403 119.571 517.42 119.574 517.437 119.579C517.373 119.527 517.338 119.476 517.348 119.441Z" fill="white"/>
<path d="M517.822 119.772C517.808 119.761 517.795 119.75 517.781 119.74C517.656 119.712 517.538 119.657 517.437 119.579C517.42 119.575 517.403 119.571 517.387 119.569C517.449 119.62 517.518 119.664 517.591 119.697C517.664 119.733 517.742 119.758 517.822 119.772Z" fill="white"/>
<path d="M505.57 119.281C505.253 118.61 506.575 117.325 508.523 116.41C510.471 115.495 512.306 115.297 512.622 115.968C512.939 116.638 511.616 117.924 509.669 118.839C507.721 119.753 505.886 119.951 505.57 119.281Z" fill="white"/>
<path d="M518.782 113.447C517.925 111.631 512.954 112.167 507.678 114.645C502.403 117.122 498.821 120.603 499.678 122.419C499.702 122.472 499.731 122.522 499.762 122.57L498.402 123.209C497.426 121.14 501.508 117.172 507.52 114.348C513.532 111.525 519.197 110.914 520.174 112.984L518.843 113.608C518.826 113.553 518.805 113.499 518.782 113.447Z" fill="white"/>
<path d="M511.056 121.844C517.068 119.021 521.15 115.053 520.174 112.984L523.468 119.975L501.7 130.201L498.402 123.209C499.379 125.279 505.045 124.669 511.056 121.844Z" fill="white"/>
<path d="M503.664 124.252C505.9 124.096 508.542 123.395 511.198 122.146C513.854 120.898 516.081 119.314 517.625 117.694C520.448 117.498 522.623 118.176 523.357 119.732C524.671 122.519 520.863 127.068 514.851 129.892C508.839 132.717 502.896 132.745 501.585 129.956C500.848 128.402 501.714 126.298 503.664 124.252Z" fill="white"/>
<path d="M498.402 123.209L499.762 122.571C500.394 123.545 502.37 123.733 504.949 123.215C504.487 123.56 504.057 123.908 503.664 124.252C500.951 124.685 498.948 124.365 498.402 123.209Z" fill="white"/>
<path d="M518.844 113.608L520.174 112.984C520.719 114.139 519.688 115.886 517.626 117.695C517.114 117.776 516.58 117.885 516.024 118.018C518.075 116.362 519.194 114.717 518.844 113.608Z" fill="white"/>
<path d="M503.664 124.252C504.057 123.908 504.483 123.56 504.95 123.215C506.69 122.866 508.714 122.194 510.784 121.222C512.853 120.251 514.643 119.13 516.023 118.018C516.579 117.885 517.114 117.776 517.625 117.695C515.987 119.124 513.712 120.597 511.056 121.844C508.4 123.091 505.81 123.909 503.664 124.252Z" fill="white"/>
</g>
<defs>
<clipPath id="clip0">
<rect width="272" height="271" fill="white" transform="translate(0 81)"/>
</clipPath>
<clipPath id="clip1">
<rect width="82" height="117" fill="white" transform="translate(77 340) rotate(-19.9219)"/>
</clipPath>
<clipPath id="clip2">
<rect width="83" height="117" fill="white" transform="translate(662.029) rotate(21.0523)"/>
</clipPath>
<clipPath id="clip3">
<rect width="64.4102" height="90.7951" fill="white" transform="translate(404 311.792) rotate(-8.7443)"/>
</clipPath>
<clipPath id="clip4">
<rect width="64.4102" height="90.7951" fill="white" transform="translate(323.519 77.3499) rotate(29.9778)"/>
</clipPath>
<clipPath id="clip5">
<rect width="69" height="97" fill="white" transform="translate(626.015 207.454) rotate(28.2016)"/>
</clipPath>
<clipPath id="clip6">
<rect width="83" height="117" fill="white" transform="translate(749 139)"/>
</clipPath>
<clipPath id="clip7">
<rect width="59" height="83" fill="white" transform="matrix(-1 0 0 1 550 81)"/>
</clipPath>
</defs>
</svg>
