<svg width="44" height="62" viewBox="0 0 44 62" fill="none" xmlns="http://www.w3.org/2000/svg">
<path d="M33.971 61.7249H10.029C4.65247 61.7249 0.277039 57.3799 0.277039 52.0408V33.465C0.277039 28.4267 4.23876 24.1863 9.29572 23.8103C9.36775 23.803 9.43054 23.858 9.43609 23.9295C9.44163 24.001 9.38807 24.0634 9.31603 24.0689C4.3939 24.4339 0.539306 28.5606 0.539306 33.465V52.0426C0.539306 57.2387 4.79654 61.4663 10.029 61.4663H33.971C39.2034 61.4663 43.4607 57.2387 43.4607 52.0426V33.465C43.4607 28.5606 39.6061 24.4339 34.684 24.0689C34.6119 24.0634 34.5584 24.001 34.5639 23.9295C34.5694 23.858 34.6322 23.8011 34.7043 23.8103C39.7612 24.1863 43.7229 28.4267 43.7229 33.465V52.0426C43.7229 57.3817 39.3475 61.7249 33.971 61.7249Z" fill="white" stroke="white" stroke-width="3" stroke-miterlimit="10"/>
<path d="M11.139 23.9112V10.4122C11.139 5.9535 14.7775 2.34031 19.2675 2.34031H24.7326C29.2225 2.34031 32.861 5.9535 32.861 10.4122V23.9112H33.9692C34.213 23.9112 34.4531 23.924 34.6932 23.9405V10.3608C34.6932 4.63845 30.0223 0 24.2598 0H19.7403C13.9778 0 9.30682 4.63845 9.30682 10.3608V23.9405C9.54508 23.9222 9.78703 23.9112 10.0308 23.9112H11.139Z" fill="white"/>
<path d="M26.188 40.4144C26.188 38.1896 24.3724 36.3867 22.1321 36.3867C19.8917 36.3867 18.0762 38.1896 18.0762 40.4144C18.0762 41.5846 18.5822 42.6355 19.3857 43.371V46.3917C19.3857 47.8994 20.6157 49.1209 22.1339 49.1209C23.6521 49.1209 24.8822 47.8994 24.8822 46.3917V43.371C25.6819 42.6355 26.188 41.5846 26.188 40.4144Z" fill="white"/>
<path d="M32.861 24.0395H11.1389C11.0669 24.0395 11.0078 23.9808 11.0078 23.9093C11.0078 23.8377 11.0669 23.7791 11.1389 23.7791H32.861C32.933 23.7791 32.9921 23.8377 32.9921 23.9093C32.9921 23.9808 32.933 24.0395 32.861 24.0395Z" fill="white" stroke="white" stroke-width="3" stroke-miterlimit="10"/>
</svg>
