<svg width="62" height="51" viewBox="0 0 62 51" fill="none" xmlns="http://www.w3.org/2000/svg">
<path d="M61.1845 50.1169L47.0807 44.3134H11.6166C8.53707 44.3134 5.58355 43.0906 3.40525 40.9138C1.22694 38.737 0.00210927 35.7843 0 32.7047V11.6087C0.00210927 8.52912 1.22694 5.57643 3.40525 3.39961C5.58355 1.2228 8.53707 -7.22354e-07 11.6166 0H47.1984C50.2777 0.0025309 53.23 1.22754 55.4065 3.4058C57.5829 5.58406 58.8055 8.53735 58.8055 11.6166V32.6968C58.8068 33.7808 58.6557 34.8597 58.3568 35.9017L61.1845 50.1169ZM11.6166 1.18871C8.85368 1.19208 6.20488 2.29114 4.2512 4.24483C2.29751 6.19852 1.19845 8.84732 1.19508 11.6102V32.6968C1.19845 35.4596 2.29756 38.1082 4.25129 40.0616C6.20503 42.0151 8.85383 43.1138 11.6166 43.1167H47.3146L59.5884 48.1755L57.1346 35.846L57.1776 35.7044C57.4706 34.7287 57.6191 33.7155 57.6184 32.6968V11.6087C57.615 8.84615 56.5161 6.19775 54.5627 4.24436C52.6093 2.29098 49.9609 1.19208 47.1984 1.18871H11.6166Z" fill="white"/>
</svg>
