<svg width="60" height="49" viewBox="0 0 60 49" fill="none" xmlns="http://www.w3.org/2000/svg">
<path d="M59.7921 48.9807L46.0065 43.2997H11.3461C8.33823 43.2964 5.4545 42.1001 3.32747 39.9734C1.20044 37.8466 0.0037906 34.9631 0 31.9552V11.3445C0.0037906 8.33664 1.20044 5.45308 3.32747 3.32635C5.4545 1.19962 8.33823 0.00336871 11.3461 0H46.1275C49.1353 0.00336871 52.0191 1.19962 54.1461 3.32635C56.2731 5.45308 57.4698 8.33664 57.4736 11.3445V31.9552C57.474 33.015 57.3262 34.0697 57.0344 35.0885L59.7921 48.9807ZM11.3461 1.16007C8.64592 1.16302 6.05719 2.23696 4.14787 4.14628C2.23856 6.05559 1.16462 8.64432 1.16167 11.3445V31.9552C1.16462 34.6554 2.23856 37.2441 4.14787 39.1534C6.05719 41.0628 8.64592 42.1367 11.3461 42.1397H46.2357L58.2311 47.0871L55.8345 35.0328L55.8759 34.8944C56.1625 33.941 56.3078 32.9508 56.3071 31.9552V11.3445C56.3042 8.64432 55.2302 6.05559 53.3209 4.14628C51.4116 2.23696 48.8229 1.16302 46.1227 1.16007H11.3461Z" fill="white"/>
<g opacity="0.3">
<path opacity="0.3" d="M17.0382 25.0856C16.2829 25.0856 15.5445 24.8616 14.9164 24.4419C14.2884 24.0223 13.7988 23.4258 13.5098 22.728C13.2207 22.0301 13.1451 21.2622 13.2924 20.5213C13.4398 19.7805 13.8036 19.1 14.3377 18.5659C14.8718 18.0318 15.5523 17.668 16.2931 17.5207C17.034 17.3733 17.8019 17.4489 18.4997 17.738C19.1976 18.027 19.7941 18.5166 20.2137 19.1446C20.6334 19.7727 20.8574 20.5111 20.8574 21.2664C20.8574 22.2793 20.455 23.2507 19.7388 23.967C19.0225 24.6832 18.0511 25.0856 17.0382 25.0856ZM17.0382 18.6201C16.5136 18.6201 16.0007 18.7756 15.5644 19.0671C15.1282 19.3586 14.7882 19.7729 14.5874 20.2576C14.3866 20.7424 14.3341 21.2757 14.4365 21.7903C14.5388 22.3049 14.7915 22.7776 15.1625 23.1486C15.5334 23.5195 16.0061 23.7722 16.5207 23.8745C17.0353 23.9769 17.5687 23.9244 18.0534 23.7236C18.5381 23.5228 18.9524 23.1828 19.2439 22.7466C19.5354 22.3103 19.6909 21.7975 19.6909 21.2728C19.6905 20.5694 19.4109 19.8949 18.9135 19.3975C18.4161 18.9001 17.7416 18.6205 17.0382 18.6201Z" fill="white"/>
</g>
<g opacity="0.5">
<path opacity="0.5" d="M28.0979 25.0856C27.3425 25.0856 26.6042 24.8616 25.9761 24.4419C25.348 24.0223 24.8585 23.4258 24.5695 22.728C24.2804 22.0301 24.2048 21.2622 24.3521 20.5213C24.4995 19.7805 24.8632 19.1 25.3974 18.5659C25.9315 18.0318 26.612 17.668 27.3528 17.5207C28.0937 17.3733 28.8616 17.4489 29.5594 17.738C30.2573 18.027 30.8538 18.5166 31.2734 19.1446C31.6931 19.7727 31.9171 20.5111 31.9171 21.2664C31.9171 22.2793 31.5147 23.2507 30.7985 23.967C30.0822 24.6832 29.1108 25.0856 28.0979 25.0856ZM28.0979 18.6201C27.5732 18.6201 27.0604 18.7756 26.6241 19.0671C26.1879 19.3586 25.8479 19.7729 25.6471 20.2576C25.4463 20.7424 25.3938 21.2757 25.4962 21.7903C25.5985 22.3049 25.8512 22.7776 26.2221 23.1486C26.5931 23.5195 27.0658 23.7722 27.5804 23.8745C28.095 23.9769 28.6283 23.9244 29.1131 23.7236C29.5978 23.5228 30.0121 23.1828 30.3036 22.7466C30.595 22.3103 30.7506 21.7975 30.7506 21.2728C30.7502 20.5694 30.4706 19.8949 29.9732 19.3975C29.4758 18.9001 28.8013 18.6205 28.0979 18.6201Z" fill="white"/>
</g>
<path d="M39.5713 25.0856C38.816 25.0856 38.0776 24.8616 37.4495 24.4419C36.8214 24.0223 36.3319 23.4258 36.0429 22.728C35.7538 22.0301 35.6782 21.2622 35.8255 20.5213C35.9729 19.7805 36.3366 19.1 36.8708 18.5659C37.4049 18.0318 38.0854 17.668 38.8262 17.5207C39.5671 17.3733 40.335 17.4489 41.0328 17.738C41.7307 18.027 42.3272 18.5166 42.7468 19.1446C43.1665 19.7727 43.3905 20.5111 43.3905 21.2664C43.3905 22.2793 42.9881 23.2507 42.2718 23.967C41.5556 24.6832 40.5842 25.0856 39.5713 25.0856ZM39.5713 18.6201C39.0467 18.6201 38.5338 18.7756 38.0975 19.0671C37.6613 19.3586 37.3213 19.7729 37.1205 20.2576C36.9197 20.7424 36.8672 21.2757 36.9696 21.7903C37.0719 22.3049 37.3246 22.7776 37.6956 23.1486C38.0665 23.5195 38.5392 23.7722 39.0538 23.8745C39.5684 23.9769 40.1017 23.9244 40.5865 23.7236C41.0712 23.5228 41.4855 23.1828 41.777 22.7466C42.0685 22.3103 42.224 21.7975 42.224 21.2728C42.2236 20.5694 41.944 19.8949 41.4466 19.3975C40.9492 18.9001 40.2747 18.6205 39.5713 18.6201Z" fill="white"/>
</svg>
